<svg id="Capa_1" data-name="Capa 1" xmlns="http://www.w3.org/2000/svg" viewBox="0 0 800 600"><defs><style>.cls-1,.cls-2,.cls-3,.cls-4,.cls-5{fill:#00b0ff;}.cls-1,.cls-12,.cls-14{opacity:0.1;}.cls-1,.cls-11,.cls-12,.cls-14,.cls-2,.cls-20,.cls-21,.cls-4,.cls-5{isolation:isolate;}.cls-2{opacity:0.2;}.cls-4{opacity:0.7;}.cls-5{opacity:0.4;}.cls-6{fill:#767d9f;}.cls-7{fill:#ae6e79;}.cls-8{fill:#4c4981;}.cls-9{fill:#504f60;}.cls-10{fill:#9c9ca1;}.cls-11{opacity:0.05;}.cls-13{fill:#fff;}.cls-14{stroke:#4c4981;stroke-miterlimit:10;}.cls-15{fill:#444053;}.cls-16{fill:#b3b3b3;}.cls-17{fill:#29abe2;}.cls-18{fill:#e6e6e6;}.cls-19{fill:#fbb03b;}.cls-21{font-size:51.92px;fill:#2e3192;font-family:JetBrainsMono-ExtraBold, JetBrains Mono;font-weight:800;}.cls-22{letter-spacing:0.09em;}</style></defs><path class="cls-1" d="M381,273.85A55.84,55.84,0,0,1,378.91,289,54.61,54.61,0,0,1,373,302.49c0,15.28-10.31,28.49-25.29,34.77A51.11,51.11,0,0,1,328,341.17H98.28a63.77,63.77,0,0,1-33-9,56.29,56.29,0,0,1-7.57-5.45c-10.37-8.92-16.8-21.23-16.8-34.84a55.24,55.24,0,0,1,23.31-80.23A52.43,52.43,0,0,1,72,208.91c1-.26,1.9-.49,2.86-.69a53.52,53.52,0,0,1,7.78-1.07c1-.06,1.9-.09,2.85-.1H86c1,0,2.1,0,3.14.1l.34-.58c.42-.7.85-1.39,1.29-2.08q1.19-1.87,2.49-3.69t2.89-3.8l.25-.31c.56-.7,1.13-1.39,1.72-2.07q2.75-3.21,5.8-6.21c22-21.56,56.45-35.44,95.19-35.44,30.15,0,57.7,8.4,78.81,22.29a53,53,0,0,1,26.21-6.89c29.81,0,54,24.51,54,54.76a54.65,54.65,0,0,1-.3,5.72A54.92,54.92,0,0,1,381,273.85Z"/><path class="cls-2" d="M103.92,188.43v6.2H98.13Q100.85,191.44,103.92,188.43Z"/><rect class="cls-2" x="106.78" y="186.85" width="7.78" height="7.78"/><rect class="cls-2" x="117.41" y="186.85" width="7.78" height="7.78"/><rect class="cls-2" x="128.05" y="186.85" width="7.78" height="7.78"/><rect class="cls-2" x="138.68" y="186.85" width="7.78" height="7.78"/><rect class="cls-2" x="149.32" y="186.85" width="7.78" height="7.78"/><rect class="cls-3" x="159.95" y="186.85" width="7.78" height="7.78"/><rect class="cls-2" x="170.59" y="186.85" width="7.78" height="7.78"/><rect class="cls-2" x="181.22" y="186.85" width="7.78" height="7.78"/><rect class="cls-2" x="191.86" y="186.85" width="7.78" height="7.78"/><rect class="cls-3" x="202.49" y="186.85" width="7.78" height="7.78"/><rect class="cls-2" x="213.13" y="186.85" width="7.78" height="7.78"/><rect class="cls-2" x="223.76" y="186.85" width="7.78" height="7.78"/><rect class="cls-2" x="234.4" y="186.85" width="7.78" height="7.78"/><rect class="cls-2" x="245.04" y="186.85" width="7.78" height="7.78"/><rect class="cls-2" x="255.67" y="186.85" width="7.78" height="7.78"/><rect class="cls-2" x="266.31" y="186.85" width="7.78" height="7.78"/><rect class="cls-3" x="276.94" y="186.85" width="7.78" height="7.78"/><rect class="cls-3" x="287.58" y="186.85" width="7.78" height="7.78"/><rect class="cls-2" x="298.22" y="186.85" width="7.78" height="7.78"/><rect class="cls-2" x="308.85" y="186.85" width="7.78" height="7.78"/><rect class="cls-3" x="319.49" y="186.85" width="7.78" height="7.78"/><rect class="cls-3" x="330.12" y="186.85" width="7.78" height="7.78"/><path class="cls-3" d="M93.29,200.8v3.69h-2.5Q92,202.6,93.29,200.8Z"/><rect class="cls-2" x="96.14" y="196.71" width="7.78" height="7.78"/><rect class="cls-3" x="106.78" y="196.71" width="7.78" height="7.78"/><rect class="cls-2" x="117.41" y="196.71" width="7.78" height="7.78"/><rect class="cls-4" x="128.05" y="196.71" width="7.78" height="7.78"/><rect class="cls-2" x="138.68" y="196.71" width="7.78" height="7.78"/><rect class="cls-5" x="149.32" y="196.71" width="7.78" height="7.78"/><rect class="cls-3" x="159.95" y="196.71" width="7.78" height="7.78"/><rect class="cls-5" x="170.59" y="196.71" width="7.78" height="7.78"/><rect class="cls-2" x="181.22" y="196.71" width="7.78" height="7.78"/><rect class="cls-5" x="191.86" y="196.71" width="7.78" height="7.78"/><rect class="cls-3" x="202.49" y="196.71" width="7.78" height="7.78"/><rect class="cls-5" x="213.13" y="196.71" width="7.78" height="7.78"/><rect class="cls-5" x="223.76" y="196.71" width="7.78" height="7.78"/><rect class="cls-2" x="234.4" y="196.71" width="7.78" height="7.78"/><rect class="cls-5" x="245.04" y="196.71" width="7.78" height="7.78"/><rect class="cls-5" x="255.67" y="196.71" width="7.78" height="7.78"/><rect class="cls-2" x="266.31" y="196.71" width="7.78" height="7.78"/><rect class="cls-2" x="276.94" y="196.71" width="7.78" height="7.78"/><rect class="cls-5" x="287.58" y="196.71" width="7.78" height="7.78"/><rect class="cls-2" x="298.22" y="196.71" width="7.78" height="7.78"/><rect class="cls-3" x="308.85" y="196.71" width="7.78" height="7.78"/><rect class="cls-3" x="319.49" y="196.71" width="7.78" height="7.78"/><rect class="cls-3" x="330.12" y="196.71" width="7.78" height="7.78"/><path class="cls-2" d="M72,208.91v5.44H64.23v-2.66A52.08,52.08,0,0,1,72,208.91Z"/><polygon class="cls-2" points="82.65 207.15 82.65 214.35 74.87 214.35 74.87 208.22 82.65 207.15"/><rect class="cls-3" x="85.5" y="206.57" width="7.78" height="7.78"/><rect class="cls-4" x="96.14" y="206.57" width="7.78" height="7.78"/><rect class="cls-3" x="106.78" y="206.57" width="7.78" height="7.78"/><rect class="cls-4" x="117.41" y="206.57" width="7.78" height="7.78"/><rect class="cls-4" x="128.05" y="206.57" width="7.78" height="7.78"/><rect class="cls-2" x="138.68" y="206.57" width="7.78" height="7.78"/><rect class="cls-5" x="149.32" y="206.57" width="7.78" height="7.78"/><rect class="cls-5" x="159.95" y="206.57" width="7.78" height="7.78"/><rect class="cls-3" x="170.59" y="206.57" width="7.78" height="7.78"/><rect class="cls-2" x="181.22" y="206.57" width="7.78" height="7.78"/><rect class="cls-5" x="191.86" y="206.57" width="7.78" height="7.78"/><rect class="cls-3" x="202.49" y="206.57" width="7.78" height="7.78"/><rect class="cls-2" x="213.13" y="206.57" width="7.78" height="7.78"/><rect class="cls-5" x="223.76" y="206.57" width="7.78" height="7.78"/><rect class="cls-2" x="234.4" y="206.57" width="7.78" height="7.78"/><rect class="cls-3" x="245.04" y="206.57" width="7.78" height="7.78"/><rect class="cls-2" x="255.67" y="206.57" width="7.78" height="7.78"/><rect class="cls-4" x="266.31" y="206.57" width="7.78" height="7.78"/><rect class="cls-4" x="276.94" y="206.57" width="7.78" height="7.78"/><rect class="cls-5" x="287.58" y="206.57" width="7.78" height="7.78"/><rect class="cls-2" x="298.22" y="206.57" width="7.78" height="7.78"/><rect class="cls-3" x="308.85" y="206.57" width="7.78" height="7.78"/><rect class="cls-3" x="319.49" y="206.57" width="7.78" height="7.78"/><rect class="cls-3" x="330.12" y="206.57" width="7.78" height="7.78"/><rect class="cls-2" x="64.23" y="216.42" width="7.78" height="7.78"/><rect class="cls-2" x="74.87" y="216.42" width="7.78" height="7.78"/><rect class="cls-2" x="85.5" y="216.42" width="7.78" height="7.78"/><rect class="cls-2" x="96.14" y="216.42" width="7.78" height="7.78"/><rect class="cls-3" x="106.78" y="216.42" width="7.78" height="7.78"/><rect class="cls-4" x="117.41" y="216.42" width="7.78" height="7.78"/><rect class="cls-4" x="128.05" y="216.42" width="7.78" height="7.78"/><rect class="cls-2" x="138.68" y="216.42" width="7.78" height="7.78"/><rect class="cls-2" x="149.32" y="216.42" width="7.78" height="7.78"/><rect class="cls-5" x="159.95" y="216.42" width="7.78" height="7.78"/><rect class="cls-5" x="170.59" y="216.42" width="7.78" height="7.78"/><rect class="cls-3" x="181.22" y="216.42" width="7.78" height="7.78"/><rect class="cls-2" x="191.86" y="216.42" width="7.78" height="7.78"/><rect class="cls-5" x="202.49" y="216.42" width="7.78" height="7.78"/><rect class="cls-5" x="213.13" y="216.42" width="7.78" height="7.78"/><rect class="cls-5" x="223.76" y="216.42" width="7.78" height="7.78"/><rect class="cls-5" x="234.4" y="216.42" width="7.78" height="7.78"/><rect class="cls-2" x="245.04" y="216.42" width="7.78" height="7.78"/><rect class="cls-2" x="255.67" y="216.42" width="7.78" height="7.78"/><rect class="cls-2" x="266.31" y="216.42" width="7.78" height="7.78"/><rect class="cls-2" x="276.94" y="216.42" width="7.78" height="7.78"/><rect class="cls-4" x="287.58" y="216.42" width="7.78" height="7.78"/><rect class="cls-4" x="298.22" y="216.42" width="7.78" height="7.78"/><rect class="cls-5" x="308.85" y="216.42" width="7.78" height="7.78"/><rect class="cls-2" x="319.49" y="216.42" width="7.78" height="7.78"/><rect class="cls-3" x="330.12" y="216.42" width="7.78" height="7.78"/><rect class="cls-2" x="64.23" y="226.28" width="7.78" height="7.78"/><rect class="cls-2" x="74.87" y="226.28" width="7.78" height="7.78"/><rect class="cls-5" x="85.5" y="226.28" width="7.78" height="7.78"/><rect class="cls-2" x="96.14" y="226.28" width="7.78" height="7.78"/><rect class="cls-2" x="106.78" y="226.28" width="7.78" height="7.78"/><rect class="cls-4" x="117.41" y="226.28" width="7.78" height="7.78"/><rect class="cls-4" x="128.05" y="226.28" width="7.78" height="7.78"/><rect class="cls-2" x="138.68" y="226.28" width="7.78" height="7.78"/><rect class="cls-2" x="149.32" y="226.28" width="7.78" height="7.78"/><rect class="cls-5" x="159.95" y="226.28" width="7.78" height="7.78"/><rect class="cls-3" x="170.59" y="226.28" width="7.78" height="7.78"/><rect class="cls-2" x="181.22" y="226.28" width="7.78" height="7.78"/><rect class="cls-3" x="191.86" y="226.28" width="7.78" height="7.78"/><rect class="cls-3" x="202.49" y="226.28" width="7.78" height="7.78"/><rect class="cls-3" x="213.13" y="226.28" width="7.78" height="7.78"/><rect class="cls-2" x="223.76" y="226.28" width="7.78" height="7.78"/><rect class="cls-3" x="234.4" y="226.28" width="7.78" height="7.78"/><rect class="cls-2" x="245.04" y="226.28" width="7.78" height="7.78"/><rect class="cls-2" x="255.67" y="226.28" width="7.78" height="7.78"/><rect class="cls-2" x="266.31" y="226.28" width="7.78" height="7.78"/><rect class="cls-2" x="276.94" y="226.28" width="7.78" height="7.78"/><rect class="cls-2" x="287.58" y="226.28" width="7.78" height="7.78"/><rect class="cls-4" x="298.22" y="226.28" width="7.78" height="7.78"/><rect class="cls-2" x="308.85" y="226.28" width="7.78" height="7.78"/><rect class="cls-2" x="319.49" y="226.28" width="7.78" height="7.78"/><rect class="cls-3" x="330.12" y="226.28" width="7.78" height="7.78"/><rect class="cls-2" x="64.23" y="236.14" width="7.78" height="7.78"/><rect class="cls-2" x="74.87" y="236.14" width="7.78" height="7.78"/><rect class="cls-2" x="85.5" y="236.14" width="7.78" height="7.78"/><rect class="cls-5" x="96.14" y="236.14" width="7.78" height="7.78"/><rect class="cls-2" x="106.78" y="236.14" width="7.78" height="7.78"/><rect class="cls-2" x="117.41" y="236.14" width="7.78" height="7.78"/><rect class="cls-4" x="128.05" y="236.14" width="7.78" height="7.78"/><rect class="cls-2" x="138.68" y="236.14" width="7.78" height="7.78"/><rect class="cls-2" x="149.32" y="236.14" width="7.78" height="7.78"/><rect class="cls-2" x="159.95" y="236.14" width="7.78" height="7.78"/><rect class="cls-3" x="170.59" y="236.14" width="7.78" height="7.78"/><rect class="cls-2" x="181.22" y="236.14" width="7.78" height="7.78"/><rect class="cls-3" x="191.86" y="236.14" width="7.78" height="7.78"/><rect class="cls-3" x="202.49" y="236.14" width="7.78" height="7.78"/><rect class="cls-2" x="213.13" y="236.14" width="7.78" height="7.78"/><rect class="cls-2" x="223.76" y="236.14" width="7.78" height="7.78"/><rect class="cls-2" x="234.4" y="236.14" width="7.78" height="7.78"/><rect class="cls-2" x="245.04" y="236.14" width="7.78" height="7.78"/><rect class="cls-2" x="255.67" y="236.14" width="7.78" height="7.78"/><rect class="cls-2" x="266.31" y="236.14" width="7.78" height="7.78"/><rect class="cls-2" x="276.94" y="236.14" width="7.78" height="7.78"/><rect class="cls-2" x="287.58" y="236.14" width="7.78" height="7.78"/><rect class="cls-2" x="298.22" y="236.14" width="7.78" height="7.78"/><rect class="cls-2" x="308.85" y="236.14" width="7.78" height="7.78"/><rect class="cls-5" x="319.49" y="236.14" width="7.78" height="7.78"/><rect class="cls-3" x="330.12" y="236.14" width="7.78" height="7.78"/><rect class="cls-4" x="64.23" y="246" width="7.78" height="7.78"/><rect class="cls-4" x="74.87" y="246" width="7.78" height="7.78"/><rect class="cls-4" x="85.5" y="246" width="7.78" height="7.78"/><rect class="cls-4" x="96.14" y="246" width="7.78" height="7.78"/><rect class="cls-4" x="106.78" y="246" width="7.78" height="7.78"/><rect class="cls-2" x="117.41" y="246" width="7.78" height="7.78"/><rect class="cls-2" x="128.05" y="246" width="7.78" height="7.78"/><rect class="cls-2" x="138.68" y="246" width="7.78" height="7.78"/><rect class="cls-2" x="149.32" y="246" width="7.78" height="7.78"/><rect class="cls-2" x="159.95" y="246" width="7.78" height="7.78"/><rect class="cls-2" x="170.59" y="246" width="7.78" height="7.78"/><rect class="cls-3" x="181.22" y="246" width="7.78" height="7.78"/><rect class="cls-2" x="191.86" y="246" width="7.78" height="7.78"/><rect class="cls-2" x="202.49" y="246" width="7.78" height="7.78"/><rect class="cls-2" x="213.13" y="246" width="7.78" height="7.78"/><rect class="cls-3" x="223.76" y="246" width="7.78" height="7.78"/><rect class="cls-2" x="234.4" y="246" width="7.78" height="7.78"/><rect class="cls-2" x="245.04" y="246" width="7.78" height="7.78"/><rect class="cls-2" x="255.67" y="246" width="7.78" height="7.78"/><rect class="cls-2" x="266.31" y="246" width="7.78" height="7.78"/><rect class="cls-2" x="276.94" y="246" width="7.78" height="7.78"/><rect class="cls-2" x="287.58" y="246" width="7.78" height="7.78"/><rect class="cls-2" x="298.22" y="246" width="7.78" height="7.78"/><rect class="cls-2" x="308.85" y="246" width="7.78" height="7.78"/><rect class="cls-2" x="319.49" y="246" width="7.78" height="7.78"/><rect class="cls-3" x="330.12" y="246" width="7.78" height="7.78"/><circle class="cls-6" cx="256.09" cy="263.99" r="10.64"/><path class="cls-7" d="M255.54,250.46q1.59,6.94,2.7,14a8.16,8.16,0,0,1-.08,4.19,15,15,0,0,1-2,2.92,3.71,3.71,0,0,0-.77,3.31,3.85,3.85,0,0,0,2.76,2c3.28.88,6.78.24,10-.72a16.55,16.55,0,0,0,4.22-1.74,15.78,15.78,0,0,0,3.56-3.36c4.76-5.77,7.88-12.7,10.81-19.59a12,12,0,0,1-10.1-4.07c-1.2-1.41-2.08-3.38-1.4-5.11-2,1.09-4.35,1.16-6.48,1.91a23.3,23.3,0,0,0-3.82,1.87c-1.46.85-2.91,1.72-4.35,2.59S257.46,250.55,255.54,250.46Z"/><path class="cls-6" d="M277.79,258.44c-1.87,3.63-4.29,7.12-7.75,9.28s-8.13,2.74-11.6.61a34.14,34.14,0,0,1-4.49-4c-1.49-1.34-3.35-2.48-5.36-2.31-2.21.2-3.94,1.92-5.42,3.57a42.74,42.74,0,0,0-6,8.09c-3,5.7-3.77,12.37-3.64,18.84s1.07,12.9,1.09,19.37c0,7.95-1.31,15.84-2.68,23.68,12.54-1.54,25.09,1.83,37.66,3.11a230.3,230.3,0,0,0,24.22.78,7.28,7.28,0,0,0,4.12-.82,5.59,5.59,0,0,0,1.71-2,19.48,19.48,0,0,0,1.87-6.72,134.46,134.46,0,0,0,.84-17.72c.05-14.34.1-28.73-1.72-42.95A40.08,40.08,0,0,0,298.28,259a16.15,16.15,0,0,0-6.6-8c-2-1.13-6.52-3.09-8.84-1.95C280.24,250.24,279,256,277.79,258.44Z"/><path class="cls-8" d="M278.71,298.93c-.47-8.85-2.39-18.29,1.7-26.14,1-1.93-2.6-4.34-1.49-6.2a27.59,27.59,0,0,0,3.07-7.3,5.5,5.5,0,0,0,.2-2.7c-.4-1.62-2-2.58-3.35-3.56s-2.27-4.39-2.75-6.19,3.84.37,5.57-.27c2.41-.88,5.47-.32,7.88.57a13.18,13.18,0,0,0,4.23.57,55,55,0,0,0,8.32-.19,20.28,20.28,0,0,1,3.73-.32c3.17.18,5.93,2.35,7.81,4.92s3.08,5.56,4.62,8.34c1.28,2.32,2.81,4.51,3.91,6.92a43.83,43.83,0,0,1,2.19,6.71l1.56,5.85a7.67,7.67,0,0,1,.39,2.6,7.49,7.49,0,0,1-.92,2.64,50,50,0,0,1-5.69,8.69c-3.29,4-7.29,7.68-9.25,12.51a31.49,31.49,0,0,0-1.57,5.88,215.8,215.8,0,0,0-3.32,24.14,52.65,52.65,0,0,0-11.14-3.72,54.24,54.24,0,0,0-5.8-.92c-1.71-.18-3.9.16-5.53-.3-2.71-.78-3-5.37-3.42-7.77a71.33,71.33,0,0,1-.82-11.59C278.81,307.7,279,303.31,278.71,298.93Z"/><path class="cls-8" d="M219.09,282.38c1.29,7.33,2.7,14.67,5.5,21.55l-.21.19c-.25.21-.51.4-.78.61a10.71,10.71,0,0,0-1.83,1.38,2.21,2.21,0,0,0-.45.75,1.62,1.62,0,0,0,0,1.36c-1.46.65-3.15.45-4.78.39a6.17,6.17,0,0,0-3.9.77c-1.57,1.08-2,3.15-2.29,5-.1.68-.18,1.37-.24,2.06s-.12,1.29-.16,1.93a57.1,57.1,0,0,0-.06,6.41L210,326c-5-.12-9.52-2.72-13.82-5.25a7.46,7.46,0,0,1-2.63-2.13,4.81,4.81,0,0,1-.71-3.14,3.59,3.59,0,0,1,0-.46,12.78,12.78,0,0,1,.7-2.65,32.67,32.67,0,0,1,5.85-10,12.73,12.73,0,0,0,2.83-4.13c.23-.69.31-1.44.53-2.13,1-3,4.67-4.44,5.92-7.36.31-.7.45-1.47.83-2.14a5.42,5.42,0,0,1,1.29-1.45l.69-.54q3.21-2.52,6.19-5.33l1.1-1.05A18,18,0,0,0,219.09,282.38Z"/><path class="cls-8" d="M249.83,260.73c-.44.47-.91.9-1.38,1.34l-.12.11-.5.46a11.79,11.79,0,0,0-2.3,2.68l-.05.08c-1.56,2.79-1,6.22-.55,9.38a78.9,78.9,0,0,1,.72,11.9c-.07,5.49-.72,10.94-.73,16.43,0,1.24,0,2.48.08,3.73.09,2,.24,4,.42,6.06.2,2.21.44,4.42.66,6.64.18,1.71.35,3.41.49,5.12.07.89.13,1.77.19,2.65q.09,1.56.15,3.12h0v3.12c0,.72,0,1.43-.06,2.14,0,.91-.1,1.82-.19,2.74a4.43,4.43,0,0,1-1,2.79l-.13.12-1-.12a101.35,101.35,0,0,0-20.53-.37q.23-1.55.42-3.09l.18-1.47c.07-.56.13-1.12.19-1.68s.14-1.22.2-1.83c.16-1.58.3-3.15.42-4.72.17-2.3.31-4.6.4-6.9,0-1.1.08-2.2.1-3.31v-8.1q0-.66-.06-1.32a7.83,7.83,0,0,0-.16-1.17,15.49,15.49,0,0,0-.91-2.58c-.07-.16-.14-.31-.2-.48a1.86,1.86,0,0,1-.1-.25,23.17,23.17,0,0,0,4.21-5.72c2-3.32,3.94-6.79,4.27-10.63s-1.58-8.14-5.25-9.32a26.51,26.51,0,0,0-3.08-.57,13.28,13.28,0,0,1-4.12-1.25c-.61.63-1.22,1.24-1.83,1.85a6.83,6.83,0,0,1,.67-2.66h.43a.81.81,0,0,1,0-.31,1.62,1.62,0,0,1,.71-1.1c1.43-1.22,3.69-1.49,4.6-3.14.38-.69.44-1.51.75-2.23.87-2.05,3.39-2.8,4.9-4.45s1.89-4,3.11-5.79a8.85,8.85,0,0,1,3.66-3l.38-.17a21.23,21.23,0,0,1,8.16-1.32,17.56,17.56,0,0,1,5,.54,1.6,1.6,0,0,1,.57.35C253,256.48,250.85,259.65,249.83,260.73Z"/><path class="cls-8" d="M219.55,275.41a18.6,18.6,0,0,1,14.26,1.49,13.56,13.56,0,0,1,5.37,5.12c1.82,3.29,1.74,7.26,1.61,11a13.39,13.39,0,0,1-1,5.52,11.23,11.23,0,0,1-4.62,4.39,13,13,0,0,1-3.76,1.63,16,16,0,0,1-6.24-.31c-2.25-.41-4.66-.91-6.21-2.58a10.43,10.43,0,0,1-1.91-3.47c-.71-1.77-1.43-3.55-2.14-5.33-1.23-3.08-1.65-5.65,0-8.65.74-1.37,1.65-2.65,2.38-4C217.66,279.52,219,275.59,219.55,275.41Z"/><path class="cls-9" d="M347.75,328.15v9.12a51.06,51.06,0,0,1-19.74,3.9H245.74l-.13.12-1-.12H98.28a63.84,63.84,0,0,1-33-8.95V318.29l70.38-8.12h.06l41,3.47,10.61.91,5.51.47,11.4,1,5.87.5,8.54.72,1.2.1,6.15.52,8.36.69,11.74,1,19.58,1.67,13.77,1.16,22.62,1.92,4.3.37h.86l5.68.48,6.24.53.72.06Z"/><polygon class="cls-10" points="265.08 327.81 176.89 312.76 173.47 330.05 213.9 334.89 226.35 336.45 260.59 329.7 265.08 327.81"/><path class="cls-10" d="M219.43,335.58l44.19-8.3a1.52,1.52,0,0,1,1.78,1.21h0a1.41,1.41,0,0,1,0,.29h0a1.5,1.5,0,0,1-1.25,1.5L221,338.37Z"/><path class="cls-7" d="M238.6,309.46a11.53,11.53,0,0,0,4-.95c1.52-.76,2.71-2.07,4.12-3a12.25,12.25,0,0,1,10.82-1.2,17.39,17.39,0,0,1,8.61,7c1.38,2.09,2.42,4.75,1.45,7.06a8.87,8.87,0,0,1-1.26,2l-2.55,3.33a8.93,8.93,0,0,1-1.72,1.86,7.32,7.32,0,0,1-3.3,1.14c-3.1.46-6.25.2-9.37.41-5.36.35-10.59,2.08-16,2a47.9,47.9,0,0,1-9.15-1.28L210.94,325c-2.32-.48-4.95-1.17-6-3.28a7.42,7.42,0,0,1-.65-3.11c-.15-2.95,0-6.22,2-8.34s5-2.61,7.23-4.08c2.81-1.81,3.73-1.22,6.68.13A36.61,36.61,0,0,0,238.6,309.46Z"/><path class="cls-11" d="M238.6,309.46a11.53,11.53,0,0,0,4-.95c1.52-.76,2.71-2.07,4.12-3a12.25,12.25,0,0,1,10.82-1.2,17.39,17.39,0,0,1,8.61,7c1.38,2.09,2.42,4.75,1.45,7.06a8.87,8.87,0,0,1-1.26,2l-2.55,3.33a8.93,8.93,0,0,1-1.72,1.86,7.32,7.32,0,0,1-3.3,1.14c-3.1.46-6.25.2-9.37.41-5.36.35-10.59,2.08-16,2a47.9,47.9,0,0,1-9.15-1.28L210.94,325c-2.32-.48-4.95-1.17-6-3.28a7.42,7.42,0,0,1-.65-3.11c-.15-2.95,0-6.22,2-8.34s5-2.61,7.23-4.08c2.81-1.81,3.73-1.22,6.68.13A36.61,36.61,0,0,0,238.6,309.46Z"/><path class="cls-7" d="M292.22,305.28a80.61,80.61,0,0,1-11.44,3.77c-6.58,1.45-13.46,1.22-20,2.87-3.45.88-6.88,2.3-10.42,2a32.08,32.08,0,0,1-4.65-1c-8.65-2.14-18.49-1.45-25.52,4a31.89,31.89,0,0,0-6.15,6.71,4.49,4.49,0,0,0,1.06,6.26,4.88,4.88,0,0,0,.74.42,26.29,26.29,0,0,0,8.66,2.31,53.61,53.61,0,0,0,12-.78c5.91-.84,11.82-1.68,17.72-2.63,2.12-.34,4.23-.69,6.36-1,15.33-1.94,30.93.41,46.29-1.2a14.17,14.17,0,0,0,4.54-1c3.58-1.68,5.35-6.1,4.61-10s-3.59-7.12-7-9.1c-2.87-1.67-6-2.34-9.17-3.05C296.89,303.27,295.08,304.18,292.22,305.28Z"/><path class="cls-12" d="M325.08,282.05c1.69,2.21,2.05,5.18,1.86,8s-.84,5.51-.94,8.3c-.13,3.82.79,7.62.64,11.43a33.14,33.14,0,0,1-1.49,7.83c-.88,3-2.16,6.26-4.94,7.71-3.7,1.92-11.46.84-15.34,2.35.35-2.21,3.74-5.4,4.1-7.61a14.07,14.07,0,0,0,.22-4.62,10.17,10.17,0,0,0-2.83-5.12,15,15,0,0,0-8.08-4.57c-3.09-.56-10.67-.1-13.15,1.85-.31-2,5.37-4,7.36-4.4,1-.22,2.14-.1,2.93-.73,1.53-1.19.42-3.58.5-5.49.05-1.52.94-2.92,1.12-4.45.31-2.44-1.28-4.92-.66-7.32a18.63,18.63,0,0,1,1.11-2.5c1.08-2.58.61-5.52,0-8.26-.36-1.72-.71-3.66.24-5.13s3.41,3.51,5,3.29c5.32-.75,10.15-4.7,14.45-1.47,2.19,1.65,2.48,3.36,3.36,5.71S323.65,280.19,325.08,282.05Z"/><path class="cls-8" d="M326,282.05c1.69,2.21,2.05,5.18,1.87,8s-.84,5.51-.94,8.3c-.13,3.82.79,7.62.63,11.43a33.14,33.14,0,0,1-1.49,7.83c-.88,3-2.15,6.26-4.94,7.71-3.7,1.92-11.45.84-15.34,2.35.35-2.21,3.75-5.4,4.1-7.61a14.35,14.35,0,0,0,.23-4.62,10.26,10.26,0,0,0-2.84-5.12,15,15,0,0,0-8.07-4.57c-3.1-.56-10.68-.1-13.16,1.85-.3-2,5.37-4,7.37-4.4,1-.22,2.13-.1,2.93-.73,1.52-1.19.42-3.58.49-5.49.06-1.52,1-2.92,1.13-4.45.3-2.44-1.29-4.92-.66-7.32a17.4,17.4,0,0,1,1.1-2.5c1.09-2.58.61-5.52,0-8.26-.36-1.72-.71-3.66.25-5.13s2.62-1.88,4.24-2.11a20.89,20.89,0,0,1,15.25,3.93c2.19,1.65,2.48,3.36,3.35,5.71S324.57,280.19,326,282.05Z"/><path class="cls-10" d="M124.16,267.6l16.58,61.29a3.81,3.81,0,0,0,3.33,2.81l74.65,7.17a3.82,3.82,0,0,0,4.17-3.44h0a3.68,3.68,0,0,0-.09-1.28l-18.16-73.94a3.83,3.83,0,0,0-4-2.9l-73.09,5.47a3.81,3.81,0,0,0-3.51,4.09v0A2.85,2.85,0,0,0,124.16,267.6Z"/><ellipse class="cls-13" cx="272.13" cy="271.24" rx="8.21" ry="8.31"/><path class="cls-13" d="M278.87,256.08s1.73,5.14-3.37,7.31l-.65,1.14,3.19,3.15s3.94-7.19,3.52-9.74C281.56,257.94,281,255.35,278.87,256.08Z"/><circle class="cls-3" cx="273.08" cy="271.64" r="7.91"/><path class="cls-3" d="M281.6,259.11,280.34,257l-1.83-.26c.39-6.83-1.38-8.86-1.38-8.86h-.41l-1.8-.17-3.37-3.51v-1c4.74.56,7.36,2.82,8.78,5.45C282.83,253.28,281.6,259.11,281.6,259.11Z"/><path class="cls-14" d="M276.73,246.61v1.26l-1.79-.17-3.38-3.51S276.78,245.36,276.73,246.61Z"/><path class="cls-14" d="M281.6,259.11,280.34,257v-8.36C282.83,253.28,281.6,259.11,281.6,259.11Z"/><ellipse class="cls-13" cx="254.44" cy="267.94" rx="4.4" ry="8.03" transform="translate(-99.88 163.12) rotate(-30)"/><path class="cls-3" d="M255.63,267.27c2.22,3.84,4.94,6.41,2.83,7.63s-8.23.61-10.45-3.23-.2-9.16,1.9-10.38S253.41,263.42,255.63,267.27Z"/><path class="cls-12" d="M275.37,239.61c0,12.27-8.39,24.09-20.67,24.09a22.22,22.22,0,1,1,0-44.44h0C267,219.27,275.37,227.33,275.37,239.61Z"/><circle class="cls-7" cx="254.7" cy="240.88" r="22.22" transform="translate(-23.87 453.71) rotate(-80.78)"/><path class="cls-15" d="M252.75,231c2.65,1,4.21,3.7,6.59,5.23,3.35,2.13,7.72,1.58,11.55.52,2.14-.58,4.37-1.29,6.47-.64a2,2,0,0,0,1,.14c.45-.13.68-.64.83-1.09a30.12,30.12,0,0,0-2.49-23.69,15.43,15.43,0,0,0-3.9-4.92,16.07,16.07,0,0,0-4.43-2.24,44.49,44.49,0,0,0-8.81-2.17,5.43,5.43,0,0,0-1.61-.06,6.89,6.89,0,0,0-2,.87,20.89,20.89,0,0,1-9.11,2.48c-4.27.16-9.15-.85-12.44,1.89-4,3.29-3,9.69-5.55,14.15-1.7,3-5,5.1-5.52,8.45a7.8,7.8,0,0,0,.19,3.08,12.5,12.5,0,0,0,11.59,9.26,4.43,4.43,0,0,0,2.37-.49,5.19,5.19,0,0,0,1.25-1.18C242.16,236.49,246.15,228.61,252.75,231Z"/><path class="cls-12" d="M279.18,233c-.15.45-.38,1-.83,1.09a1.8,1.8,0,0,1-1-.14c-2.1-.65-4.35.06-6.47.65-3.83,1-8.21,1.62-11.55-.53-2.38-1.53-3.94-4.27-6.59-5.23-6.6-2.44-10.59,5.45-14.09,9.59a5.44,5.44,0,0,1-1.25,1.19,4.42,4.42,0,0,1-2.37.48,12.52,12.52,0,0,1-11.59-9.26c-.07-.31-.13-.61-.18-.92V230a7.75,7.75,0,0,0,.19,3.07A12.51,12.51,0,0,0,235,242.29a4.43,4.43,0,0,0,2.37-.49,5.19,5.19,0,0,0,1.25-1.18c3.5-4.14,7.49-12,14.09-9.59,2.65,1,4.21,3.7,6.59,5.22,3.35,2.14,7.72,1.59,11.55.53,2.14-.58,4.37-1.29,6.47-.64a2,2,0,0,0,1,.14c.45-.14.68-.64.83-1.09a27.37,27.37,0,0,0,1.36-9.84A27.61,27.61,0,0,1,279.18,233Z"/><path class="cls-16" d="M716.16,167.44l-2.42-4.85h-7.48l-2.42,4.85Z"/><path class="cls-17" d="M700.09,143.9h19.82a2.16,2.16,0,0,1,2.16,2.16v14.65a2.16,2.16,0,0,1-2.16,2.16H700.09a2.16,2.16,0,0,1-2.16-2.16V146.06A2.16,2.16,0,0,1,700.09,143.9Z"/><path class="cls-18" d="M719.91,162.87H700.09a2.16,2.16,0,0,1-2.16-2.16v-1.29h24.14v1.29a2.16,2.16,0,0,1-2.16,2.16Z"/><path class="cls-18" d="M701.38,167.18h17.24a.85.85,0,0,1,.86.84v0h0a.85.85,0,0,1-.84.86H701.38a.85.85,0,0,1-.86-.84v0h0a.85.85,0,0,1,.84-.86Z"/><path class="cls-19" d="M706.8,159.42l.22-.7,1.69-.68v-1.6l-1.68-.68-.41-1.25,1-1.54-.94-1.3-1.76.44-1.07-.77-.13-1.81-1.52-.5-1.2,1.39h-1.32L698.51,149l-.58.19v10.2Z"/><path class="cls-17" d="M703.24,159.42a3.63,3.63,0,0,0-5.31-4.9v4.9Z"/><path d="M708.71,147.35h11.63v.86H708.71Z"/><path d="M708.71,149.07H716v.87h-7.32Z"/><path d="M708.71,150.8H716v.86h-7.32Z"/><path d="M712.16,145.63h8.18v.86h-8.18Z"/><path d="M710.43,145.63h.86v.86h-.86Z"/><path d="M709.57,160.71h.86v.86h-.86Z"/><path d="M703.66,148.09l.61-.61-.56-.56.56-.56-.61-.61-.86.86a.43.43,0,0,0,0,.61h0Z"/><path d="M706.86,148.09l.86-.87a.43.43,0,0,0,0-.61h0l-.86-.86-.61.61.55.56-.55.56Z"/><path d="M704.42,148.07l.86-2.58.82.27-.86,2.59Z"/><path d="M719.48,153.38h-.86v3.45h-.86v-4.31h-.86v4.31H716v-2.15h-.86v2.15h-.86v-2.58h-.86v2.58h-.86v-1.72h-.87v1.72h-.86v.86h9.48v-.86h-.86Z"/><path d="M697.5,159.42v1.29a2.59,2.59,0,0,0,2.59,2.59h5.33l-1.72,3.45h-2.32a1.29,1.29,0,1,0,0,2.58h17.24a1.29,1.29,0,0,0,0-2.58H716.3l-1.72-3.45h5.33a2.59,2.59,0,0,0,2.59-2.59h0V146.06a2.59,2.59,0,0,0-2.59-2.59H700.09a2.59,2.59,0,0,0-2.59,2.59h0v8.46h0Zm8.71-4.78.41,1.26a.41.41,0,0,0,.24.26l1.42.58v1l-1.42.58a.4.4,0,0,0-.25.26l-.13.4H704a4.06,4.06,0,0,0-5.64-5.3v-4.16l1,1.17a.41.41,0,0,0,.33.15H701a.41.41,0,0,0,.33-.15l1-1.17,1,.32.11,1.52a.44.44,0,0,0,.17.32l1.07.77a.42.42,0,0,0,.36.07l1.48-.37.6.83-.81,1.29a.45.45,0,0,0,0,.36ZM698.36,159v-4.27A3.2,3.2,0,0,1,703,159Zm20.69,9a.43.43,0,0,1-.43.43H701.38a.43.43,0,1,1,0-.86h17.24a.43.43,0,0,1,.43.43Zm-3.71-1.29H704.66l1.73-3.45h7.22Zm4.57-4.31H700.09a1.72,1.72,0,0,1-1.73-1.73v-.86h23.28v.86a1.72,1.72,0,0,1-1.69,1.77h0Zm-19.82-18.11h19.82a1.72,1.72,0,0,1,1.73,1.71v13H707.52l1.35-.55a.44.44,0,0,0,.27-.4v-1.6a.45.45,0,0,0-.27-.4l-1.5-.6-.28-.87.85-1.37a.44.44,0,0,0,0-.49l-.94-1.29a.41.41,0,0,0-.45-.16l-1.57.38-.74-.53-.11-1.61a.42.42,0,0,0-.3-.38l-1.52-.5a.42.42,0,0,0-.46.14l-1,1.23h-.92l-1-1.23a.45.45,0,0,0-.47-.14h0v-2.57a1.72,1.72,0,0,1,1.71-1.73h0Z"/><g class="cls-20"><text class="cls-21" transform="translate(248.93 169.33)">DANIEL MORALES</text></g><text class="cls-21" transform="translate(308.85 247.07)">DESARROLLADOR<tspan class="cls-22" x="0" y="62.3" xml:space="preserve">							</tspan><tspan x="252" y="62.3">WEB JR.</tspan></text></svg>