<svg id="Capa_1" data-name="Capa 1" xmlns="http://www.w3.org/2000/svg" viewBox="0 0 800 400"><defs><style>.cls-1{fill:#00b0ff;}.cls-2{opacity:0.2;isolation:isolate;}.cls-3{fill:#3f3d56;}.cls-4{fill:#ccc;}.cls-5{fill:#9f616a;}.cls-6{fill:#2f2e41;}.cls-7{fill:#e6e6e6;}.cls-8{fill:#ffb9b9;}.cls-9{fill:#fff;}.cls-10{fill:#f2f2f2;}.cls-11{font-size:51.92px;fill:#2e3192;font-family:JetBrainsMono-ExtraBold, JetBrains Mono;font-weight:800;}</style></defs><polygon class="cls-1" points="282.51 118.44 282.49 118.53 282.45 118.8 278.58 146.61 254.85 155.32 254.47 155.14 241.19 148.83 234.32 122.47 233.84 120.66 233.99 120.6 263.38 109.56 282.49 118.43 282.51 118.44"/><polygon class="cls-1" points="254.47 155.14 241.19 148.83 233.84 120.66 233.99 120.6 253.14 128.68 254.47 155.14"/><polygon class="cls-2" points="254.81 154.82 244.7 135.45 246 129.96 239.88 122.76 239.36 123.2 245.25 130.14 240.85 148.75 241.52 148.91 244.46 136.47 254.2 155.14 254.81 154.82"/><polygon class="cls-3" points="282.51 118.78 282.45 118.8 253.14 129.03 234.32 122.47 233.84 120.66 233.99 120.6 263.38 109.56 282.49 118.43 282.49 118.53 282.51 118.78"/><polygon class="cls-1" points="253.65 129.54 247.68 124.93 249.04 119.81 266.12 113.66 277.73 114.34 282.34 118.27 282.68 119.29 253.65 129.54"/><polygon class="cls-1" points="234.19 120.66 247.68 120.15 254.98 117.67 266.38 113.66 268.5 110.59 263.19 109.63 234.19 120.66"/><rect class="cls-4" x="253.93" y="116.38" width="7.45" height="0.68" transform="translate(-24.11 91.9) rotate(-19.34)"/><polygon class="cls-5" points="168.42 75.23 165.13 91.71 180.51 103.25 187.66 81.82 168.42 75.23"/><circle class="cls-5" cx="180.79" cy="75.5" r="14.84"/><path class="cls-6" d="M148.64,187.92c.07,4.79,20.92,58.06,18,65-4.56,4.66-14.38,29.49-18.57,36.11-.55,0-3.3,8.25-3.3,8.25s6.6,10.44,13.74,6c9-21.13,31.48-32.91,31.88-60.44,1.08,8.69,4.29,64.53,4.29,64.53s-.62.26,13.22,1.58c2.15-32.4,10.93-87.53-8.72-122.17C193.15,184.07,148.64,187.92,148.64,187.92Z"/><path class="cls-6" d="M194.7,306.32c-.64,1.24-5.25,12.64-1.06,13.78a16.81,16.81,0,0,0,9.52-.53s8.47,2.65,13.65-.71c2.41-2.42,1.86-4.62.71-6.21a6.73,6.73,0,0,0-5-2.69c-2.63-.19-3.47-.68-3.77-1.88C208.32,306.32,194.7,306.32,194.7,306.32Z"/><path class="cls-6" d="M149.48,296.36s-11.81,3.73-9.32,8.08a16.37,16.37,0,0,0,6.79,6.27s2.46,10.15,9.3,10.15c3.42,0,4.59-1.94,4.9-3.88a6.75,6.75,0,0,0-1.63-5.44c-1.73-2-2-2.92-1.33-4C159.12,306,149.48,296.36,149.48,296.36Z"/><path class="cls-7" d="M202,189.53s-2.2,4.4-11,2.75-43.41,0-43.41,0,1.92-39.29-2.47-62.92A39.32,39.32,0,0,1,158,92.26l5.5-5.49c5.49-.55,17.1,16.51,17.1,16.51,3.82.64,7.38,16.87,10.43,32.23.18.88.35,1.75.51,2.62,1.41,7.16,3.36,15.13,4.53,22.29l.24,1.51A261.65,261.65,0,0,0,202,189.53Z"/><path class="cls-6" d="M163.43,66.26s-2.77-6.1,4.44-8.87c0,0,6.1-10,18.31-3.33,0,0,8.32,3.33,8.32,12.2s2.77,10.55,2.77,10.55-4.13-4.24-5.24-7.57-9.74-4.08-13.07-.76-11.65,2.78-11.65,2.78l.56,12.2s-2.78-7.21-3.89-7.21S161.77,66.26,163.43,66.26Z"/><path class="cls-2" d="M196.05,160.42c-13.11-7.13-34.34-22.75-41.2-31.21-9-11.13.82-19.6.82-19.6,11.17-7,24.52,17.13,24.52,17.13L191,135.51c.18.88.35,1.75.51,2.62C192.93,145.29,194.88,153.26,196.05,160.42Z"/><path class="cls-5" d="M235.18,152.21s19.49,7.91,22.7-1-15.39-8.75-15.39-8.75l-7.3,1Z"/><path class="cls-7" d="M153.18,106s-9.85,8.47-.83,19.61,50.5,34.91,50.5,34.91l27-7.3,7.65,1.4L239,140.26l-11.26,1.1-28.59-6.09-18.23-14.79S164.34,99,153.18,106Z"/><polygon class="cls-2" points="189.04 208.02 190.76 248.26 186.4 208.02 189.04 208.02"/><path class="cls-8" d="M375,179.23l-15.64,3.62a4.77,4.77,0,0,1-5.69-3.44h0a4.77,4.77,0,0,1,3.4-5.82,5.12,5.12,0,0,1,1.1-.16l15.11-.35Z"/><path class="cls-3" d="M373.35,181.52l-3.48-10.42L390.69,164l-5.52-48.66h0c9.94,1.81,14.68,9.63,14.24,19.74l2.69,33.2Z"/><path class="cls-6" d="M387.73,104.6h34V87.69a17.27,17.27,0,0,0-5-12.21,16.76,16.76,0,0,0-12-5.07,17,17,0,0,0-17,16.83V104.6Z"/><path class="cls-6" d="M436,303.38l-10.88-1.25-13-87.87-26.91,88.23-11.77.36,13.37-108.56-2-24.77L418.14,159C441.75,175.48,441.26,233.69,436,303.38Z"/><circle class="cls-8" cx="401.74" cy="88.42" r="12.83"/><path class="cls-8" d="M414.58,111.59l-21.75,5.7c3.66-7,4.84-13.62,2.85-19.6L411,95.19A22.36,22.36,0,0,0,414.58,111.59Z"/><path class="cls-3" d="M421.88,163.81c-12.19,7.76-26.4,16.67-36.89,8l-5-24.25c-4-3.53-2.21-14.43,3.15-30a6.88,6.88,0,0,1,4.26-4.26l8.27-2.84c3.67,3.08,9.68,1.24,16.76-2.85l8.2,2.14,3.56,26.73C419.06,144.25,420,154.52,421.88,163.81Z"/><path class="cls-8" d="M411.72,174.24l-15.63,3.62a4.77,4.77,0,0,1-5.69-3.44h0a4.76,4.76,0,0,1,3.4-5.82,4.57,4.57,0,0,1,1.1-.16l15.1-.35Z"/><path class="cls-6" d="M434.08,320.18c-1.83.83-3.36-4.33-4.9-2.82-4.31,4.24-14.64,3.29-14.64,3.29a2.69,2.69,0,0,1-1.74-3.39.56.56,0,0,1,0-.12h0a2.68,2.68,0,0,1,1.87-1.67l4.58-1.15,7.19-12.65,7.84-1,.2.32a20.21,20.21,0,0,1,2.17,16.53C436,319.62,435.15,319.69,434.08,320.18Z"/><path class="cls-6" d="M382.39,320.18c-1.83.83-3.36-4.33-4.9-2.82-4.31,4.24-14.65,3.29-14.65,3.29a2.71,2.71,0,0,1-1.74-3.39l0-.12h0a2.68,2.68,0,0,1,1.87-1.67l4.58-1.15,7.19-12.65,7.84-1,.2.32A20.21,20.21,0,0,1,385,317.53C384.35,319.62,383.46,319.69,382.39,320.18Z"/><path class="cls-6" d="M416.79,77.71,413.56,88l-27.95-.5a17.28,17.28,0,0,1,31.18-9.79Z"/><path class="cls-3" d="M410.06,176.53l-3.47-10.42L427.41,159l-7.88-49.71h0a20.22,20.22,0,0,1,16.59,20.79l2.7,33.2Z"/><polygon class="cls-4" points="360.34 148.44 338.68 153.1 334.26 131.8 342.41 120.85 349.74 119.46 357.89 127.72 360.34 148.44"/><polygon class="cls-7" points="350.33 149.37 337.29 149.37 335.51 140.6 333.56 130.98 336.47 126.79 342.06 128.54 348.12 136.92 349.63 145.46 349.74 146.07 350.33 149.37"/><polygon class="cls-4" points="372.21 144.25 357.19 146 359.87 126.91 365.93 121.44 371.17 122.72 374.66 130.75 372.21 144.25"/><polygon class="cls-7" points="374.19 132.96 372.79 140.65 368.25 166.84 350.79 172.43 350.19 172.1 340.78 166.95 335.48 140.59 335.51 140.6 349.51 146.23 349.63 145.46 349.72 144.91 350.79 138.09 355.56 132.96 371.51 129.12 374.19 132.96"/><circle class="cls-7" cx="363.13" cy="128.42" r="3.73"/><rect class="cls-9" x="345.43" y="131.1" width="8.63" height="0.23" transform="translate(-17.59 63.35) rotate(-10.1)"/><polygon class="cls-10" points="350.19 172.1 340.78 166.95 335.48 140.59 335.51 140.6 333.56 130.98 336.47 126.79 342.06 128.54 348.12 136.92 349.63 145.46 349.72 144.91 349.74 146.07 349.8 149.37 350.19 172.1"/><polygon class="cls-4" points="340.89 166.99 340.67 166.93 345.31 149.52 339.99 142.51 340.18 142.37 345.56 149.47 340.89 166.99"/><rect class="cls-4" x="346.98" y="156.26" width="0.23" height="17.01" transform="translate(-37.11 166.95) rotate(-25.72)"/><path class="cls-2" d="M373.27,139.05l-.87,4.83h0l-3.91,22.59L351,172.05l-.11,0-.07-.14L341,166.58l-.12,0,.06-.23-5.24-26.11h0l-.59-2.86.44-.63,1.34-1.93,5.59,1.75,6,8.38.09.5.64,3.57.25,1.44.54,3,.51-3.26.19-1.17.46-2.95L356,141l2.13-.51,1.47-.36,2-.49a3.72,3.72,0,1,1,5.11-1.25v0l5.21-1.25,1.29,1.84Z"/><polygon class="cls-7" points="350.75 158.55 337.71 158.55 333.98 140.16 336.89 135.96 342.48 137.71 348.53 146.09 350.75 158.55"/><polygon class="cls-7" points="368.67 176.01 351.21 181.6 341.2 176.13 335.9 149.76 349.93 155.41 351.21 147.26 355.98 142.13 371.93 138.29 374.61 142.13 373.21 149.82 368.67 176.01"/><circle class="cls-7" cx="363.55" cy="137.59" r="3.73"/><polygon class="cls-10" points="350.62 181.09 341.21 175.94 335.91 149.58 335.94 149.59 333.99 139.97 336.9 135.78 342.49 137.53 348.54 145.91 350.06 154.46 350.15 153.9 350.17 155.07 350.23 158.37 350.62 181.09"/><polygon class="cls-4" points="341.31 176.16 341.09 176.1 345.73 158.69 340.41 151.68 340.6 151.54 345.98 158.64 341.31 176.16"/><rect class="cls-4" x="347.4" y="165.43" width="0.23" height="17.01" transform="translate(-41.05 168.04) rotate(-25.72)"/><polygon class="cls-4" points="496.82 297.81 475.17 302.46 470.74 281.16 478.89 270.21 486.23 268.82 494.38 277.08 496.82 297.81"/><polygon class="cls-7" points="486.81 298.74 473.77 298.74 471.99 289.96 470.05 280.34 472.95 276.15 478.55 277.9 484.6 286.28 486.12 294.83 486.22 295.43 486.81 298.74"/><polygon class="cls-4" points="508.69 293.62 493.68 295.36 496.36 276.27 502.41 270.8 507.65 272.08 511.14 280.11 508.69 293.62"/><polygon class="cls-7" points="510.67 282.32 509.27 290.01 504.74 316.2 487.27 321.79 486.67 321.46 477.26 316.31 471.96 289.95 471.99 289.96 485.99 295.59 486.12 294.83 486.2 294.27 487.27 287.45 492.05 282.32 508 278.48 510.67 282.32"/><circle class="cls-7" cx="499.61" cy="277.78" r="3.73"/><rect class="cls-9" x="481.91" y="280.46" width="8.63" height="0.23" transform="translate(-41.66 89.59) rotate(-10.1)"/><polygon class="cls-10" points="486.67 321.46 477.26 316.31 471.96 289.95 471.99 289.96 470.05 280.34 472.95 276.15 478.55 277.9 484.6 286.28 486.12 294.83 486.2 294.27 486.22 295.43 486.28 298.74 486.67 321.46"/><polygon class="cls-4" points="477.38 316.35 477.15 316.29 481.79 298.88 476.48 291.87 476.66 291.73 482.05 298.83 477.38 316.35"/><rect class="cls-4" x="483.47" y="305.62" width="0.23" height="17.01" transform="translate(-88.41 240.97) rotate(-25.72)"/><polygon class="cls-7" points="539.61 319.76 525.33 319.76 523.21 292.25 541.72 292.25 539.61 319.76"/><rect class="cls-10" x="522.94" y="303.36" width="19.04" height="4.23"/><polygon class="cls-4" points="546.88 294.22 543.84 293.33 543.8 292.21 530.27 288.23 529.63 289.14 526.58 288.25 524.67 290.99 547 297.57 546.88 294.22"/><polygon class="cls-1" points="98.94 285.04 98.93 285.13 98.89 285.4 95.02 313.21 71.28 321.92 70.91 321.74 57.62 315.43 50.75 289.07 50.28 287.26 50.42 287.2 79.82 276.16 98.93 285.03 98.94 285.04"/><polygon class="cls-1" points="70.91 321.74 57.62 315.43 50.28 287.26 50.42 287.2 69.58 295.28 70.91 321.74"/><polygon class="cls-2" points="71.24 321.42 61.14 302.05 62.44 296.56 56.32 289.36 55.8 289.8 61.69 296.74 57.29 315.35 57.96 315.51 60.9 303.07 70.64 321.74 71.24 321.42"/><polygon class="cls-3" points="98.94 285.38 98.89 285.4 69.58 295.63 50.75 289.07 50.28 287.26 50.42 287.2 79.82 276.16 98.93 285.03 98.93 285.13 98.94 285.38"/><polygon class="cls-1" points="70.09 296.14 64.11 291.53 65.48 286.4 82.55 280.26 94.16 280.94 98.77 284.87 99.11 285.89 70.09 296.14"/><polygon class="cls-1" points="50.62 287.26 64.11 286.75 71.42 284.27 82.81 280.26 84.94 277.19 79.63 276.23 50.62 287.26"/><rect class="cls-4" x="70.37" y="282.98" width="7.45" height="0.68" transform="translate(-89.64 40.52) rotate(-19.34)"/><polygon class="cls-1" points="38.99 320.39 24.71 320.39 22.59 292.88 41.11 292.88 38.99 320.39"/><rect class="cls-7" x="22.33" y="303.99" width="19.04" height="4.23"/><polygon class="cls-3" points="42.17 291.3 38.99 291.3 38.64 290.24 24.53 290.24 24.18 291.3 21.01 291.3 19.95 294.47 43.23 294.47 42.17 291.3"/><rect class="cls-3" x="126.94" y="320.07" width="320.63" height="1.06"/><text class="cls-11" transform="translate(377.82 58.4)">DISTRIBUCIÓN</text><text class="cls-11" transform="translate(438.45 138.48)">Organiaza <tspan x="0" y="62.31" xml:space="preserve">  tus</tspan><tspan x="0" y="124.61" xml:space="preserve">   pedidos</tspan></text></svg>