<svg id="Capa_1" data-name="Capa 1" xmlns="http://www.w3.org/2000/svg" viewBox="0 0 800 400"><defs><style>.cls-1{fill:#f2f2f2;}.cls-2{fill:#3f3d56;}.cls-3{opacity:0.1;isolation:isolate;}.cls-4{fill:#00b0ff;}.cls-5{fill:#ffb9b9;}.cls-6{fill:#2f2e41;}.cls-7{fill:#d0cde1;}.cls-8{font-size:51.92px;fill:#2e3192;font-family:JetBrainsMono-ExtraBold, JetBrains Mono;font-weight:800;}</style></defs><path class="cls-1" d="M29.11,141.28c9.42-61.17,42-105.33,80.2-107.1,20.21-.94,41.47,10.12,56.95,48.84,27.67,69.21-1.7,117-22.18,139.76a182.36,182.36,0,0,0-26.49,39.3c-13.83,27.1-40.44,60.77-72.13,8C22.49,231.84,22.83,182,29.11,141.28Z"/><rect class="cls-2" x="92.33" y="195.51" width="275.43" height="100.13"/><polygon class="cls-3" points="166.63 195.51 92.33 246.52 92.33 216.98 123.6 195.51 166.63 195.51"/><polygon class="cls-3" points="240.05 195.51 170.56 243.22 168.07 244.93 94.2 295.64 92.33 295.64 92.33 267.38 139.93 234.71 141.52 233.62 197.03 195.51 240.05 195.51"/><path class="cls-1" d="M100.42,245.89l-.74-.93a60.65,60.65,0,0,1,19.37-9.27,61.53,61.53,0,0,1,21.17-2.19,66.07,66.07,0,0,1,26.13,7.76l-.56,1.05c-18.9-10-35.67-8.51-46.42-5.47A59.37,59.37,0,0,0,100.42,245.89Z"/><path class="cls-1" d="M172.25,245.43a36.06,36.06,0,0,0-11.62-.22l4.61-3.86,1.07-5.91A36,36,0,0,0,172.25,245.43Z"/><path class="cls-1" d="M222,257.51a62,62,0,0,1-16.8-2.35,60,60,0,0,1-19.36-9.27l.74-.93a58.88,58.88,0,0,0,19,9.07c10.73,3,27.48,4.52,46.37-5.49l.55,1.06a65.84,65.84,0,0,1-26.13,7.75C224.93,257.46,223.47,257.51,222,257.51Z"/><path class="cls-1" d="M258.42,245.43a36,36,0,0,0-6,10l-1.07-5.92-4.61-3.85A36.12,36.12,0,0,0,258.42,245.43Z"/><path class="cls-1" d="M276,245.89l-.74-.93a60.51,60.51,0,0,1,19.37-9.27,61.69,61.69,0,0,1,21.16-2.19A66.07,66.07,0,0,1,342,241.26l-.56,1.05c-18.9-10-35.68-8.51-46.42-5.47A59.09,59.09,0,0,0,276,245.89Z"/><path class="cls-1" d="M347.85,245.43a36.12,36.12,0,0,0-11.63-.22l4.61-3.86,1.07-5.91A36,36,0,0,0,347.85,245.43Z"/><rect class="cls-4" x="254.26" y="222.85" width="19.31" height="0.59"/><rect class="cls-4" x="254.26" y="228.79" width="19.31" height="0.59"/><rect class="cls-4" x="254.26" y="234.73" width="19.31" height="0.59"/><rect class="cls-4" x="167.5" y="257.91" width="19.31" height="0.59"/><rect class="cls-4" x="167.5" y="263.85" width="19.31" height="0.59"/><rect class="cls-4" x="167.5" y="269.79" width="19.31" height="0.59"/><rect class="cls-4" x="343.69" y="257.91" width="19.31" height="0.59"/><rect class="cls-4" x="343.69" y="263.85" width="19.31" height="0.59"/><rect class="cls-4" x="343.69" y="269.79" width="19.31" height="0.59"/><circle class="cls-4" cx="177.6" cy="248.99" r="3.86"/><circle class="cls-4" cx="264.06" cy="243.65" r="3.86"/><circle class="cls-4" cx="353.2" cy="248.99" r="3.86"/><path class="cls-2" d="M138.81,168.63l-5.75-6.17,6.17-5.76,5.75,6.17ZM134,162.49l4.87,5.22,5.22-4.87-4.87-5.22Z"/><path class="cls-2" d="M277.24,96.32l-5.76-6.17,6.17-5.75,5.75,6.17Zm-4.84-6.14,4.87,5.22,5.22-4.86-4.87-5.22Z"/><path class="cls-2" d="M347.89,196h-8.44v-8.43h8.44Zm-7.79-.65h7.14v-7.13H340.1Z"/><circle class="cls-4" cx="222.96" cy="224.93" r="4.31"/><path class="cls-1" d="M223,237.37a12.44,12.44,0,1,1,12.45-12.44h0A12.46,12.46,0,0,1,223,237.37Zm0-23.92a11.48,11.48,0,1,0,11.49,11.48A11.48,11.48,0,0,0,223,213.45Z"/><rect class="cls-1" x="198.74" y="121.22" width="35.88" height="41.8"/><path class="cls-2" d="M222.42,225.48l-.5-.48a25.55,25.55,0,0,0,5.11-8.94c1.69-5.1,2.52-13.15-3.16-22.56-5.81-9.63-6.08-17.45-5.27-22.31a20,20,0,0,1,3.2-8.39l.55.42a19.8,19.8,0,0,0-3.07,8.12c-.78,4.74-.51,12.37,5.18,21.8,5.83,9.65,5,17.93,3.22,23.17A25.86,25.86,0,0,1,222.42,225.48Z"/><path class="cls-2" d="M248.55,163.36H198.39V113.2h50.16Zm-49.46-.69h48.76V113.9H199.09Z"/><rect class="cls-2" x="208.84" y="127.83" width="30.65" height="0.7"/><rect class="cls-2" x="208.84" y="135.5" width="30.65" height="0.7"/><rect class="cls-2" x="208.84" y="143.16" width="30.65" height="0.7"/><polygon class="cls-5" points="75.95 265 74.69 277.18 81.83 276.34 82.67 266.26 75.95 265"/><path class="cls-6" d="M57.05,172.59S20.51,207.88,43.61,218.8h7.14s15.54-25.63,23.1-25.21L76,218,74.69,267.1l9.24.42s5.46-24.78,5-38.64l9.66-51.25Z"/><path class="cls-6" d="M45.71,217.12l5,1.68s19.74-4.62,21-4.2l3.91,0-.13-10H58.73Z"/><path class="cls-6" d="M82.67,274.66s-7.56-3.36-8.82,0-.84,13-.84,13a9.34,9.34,0,0,1,.84,6.3c-.84,3.36,3.36,5,8.82,3.36s5.46-5.88,5.46-5.88Z"/><path class="cls-6" d="M89,203.67s5.88-3.36,5.46,1.69A33.21,33.21,0,0,1,91.91,215s5.46,14.28,0,15.54-9.66-1.68-9.66-3.78S89,203.67,89,203.67Z"/><polygon class="cls-5" points="70.49 88.59 71.33 104.55 78.47 110.85 86.45 99.51 86.45 88.17 70.49 88.59"/><path class="cls-7" d="M76,104.55,71.14,101,68,105.81l-14.28,8.4,8.4,21.84.42,21.42s-15.54,16-6.3,18.06,42,6.72,43.68,2.94-2.1-42.84-2.1-42.84l1.26-33.18-12.6-4.56Z"/><path class="cls-5" d="M50.33,131.15S47,155,53.27,155a29,29,0,0,0,10.92-2.1l-5-13,2.1-8.82Z"/><path class="cls-5" d="M60,152l4.62.84s13.44-8.4,14.28-8.82-13.44-7.56-13.44-7.56l-9.66,3.78Z"/><path class="cls-3" d="M65.45,136.47l-6.06,2.37L61.25,131l-10.92.14S47,155,53.27,155a29,29,0,0,0,10.92-2.1l0-.08.45.08s13.44-8.4,14.28-8.82S65.45,136.47,65.45,136.47Z"/><circle class="cls-5" cx="80.21" cy="84.56" r="11.99"/><path class="cls-6" d="M69.61,71l-2.35-.94s4.9-5.4,11.72-4.93l-1.92-2.11s4.69-1.87,9,3a41.72,41.72,0,0,1,6.45,9.06H95l-1,2.31,3.66,2.31-3.76-.42a12.7,12.7,0,0,1-.35,6l.1,1.83s-4.36-6.75-4.36-7.69v2.35s-2.35-2.11-2.35-3.52l-1.28,1.64-.64-2.58-7.88,2.58,1.28-2.11-4.9.7L75.36,76s-5.54,3-5.75,5.63-3,5.86-3,5.86L65.35,85.1S63.43,74.55,69.61,71Z"/><path class="cls-5" d="M90.65,123.87a15.1,15.1,0,0,0-3.36,9.24L65,132.27s-5.88-.84-5.88,3.36v4.2s2.94-1.26,4.62,0,19.74,12.18,28.56,8,10.93-20.58,10.93-20.58S95.27,120.51,90.65,123.87Z"/><path class="cls-7" d="M95.69,102.87l3.36-.42s6.73.84,5.89,13.86-1.26,13.86-1.26,13.86-8.83-8-15.13-4.2Z"/><path class="cls-7" d="M55.37,114.21H53.69a15.6,15.6,0,0,0-3.36,9.66A46.44,46.44,0,0,1,48.86,135l13.23-2.31Z"/><rect class="cls-2" x="263.69" y="167.39" width="0.65" height="16.91"/><path class="cls-2" d="M264,163.46a19.71,19.71,0,0,0,3.1,5.56L264,167.9l-3.1,1.12A19.71,19.71,0,0,0,264,163.46Z"/><rect class="cls-2" x="185.53" y="152.73" width="0.65" height="16.91"/><path class="cls-2" d="M185.85,148.8a19.9,19.9,0,0,0,3.1,5.57l-3.1-1.12-3.1,1.12A19.66,19.66,0,0,0,185.85,148.8Z"/><rect class="cls-2" x="293.66" y="139.7" width="0.65" height="16.91"/><path class="cls-2" d="M294,135.77a19.77,19.77,0,0,0,3.1,5.57l-3.1-1.12-3.09,1.12A19.5,19.5,0,0,0,294,135.77Z"/><text class="cls-8" transform="translate(367.47 126.59)">BIENVENIDO</text><text class="cls-8" transform="translate(371.54 211.86)">Gestiona tu<tspan x="0" y="62.31" xml:space="preserve">   inventario</tspan></text></svg>