<svg height="512" viewBox="0 0 64 64" width="512" xmlns="http://www.w3.org/2000/svg"><g id="Admin"><path d="m61 23a7.989 7.989 0 0 1 -8 8h-42a8 8 0 0 1 0-16h.14a14 14 0 0 1 25.43-5.87 8 8 0 0 1 13.43 5.87h3a8 8 0 0 1 8 8z" fill="#57a4ff"/><path d="m61 23a7.989 7.989 0 0 1 -8 8h-34.08c6.47-1.43 14.28-4.69 20.08-12a33.049 33.049 0 0 0 5.86-11.47 7.992 7.992 0 0 1 5.14 7.47h3a8 8 0 0 1 8 8z" fill="#006df0"/><path d="m55 38v12h2v9a2.006 2.006 0 0 1 -2 2h-16a2.006 2.006 0 0 1 -2-2v-9h2v-12h-6v-2a10 10 0 0 1 10-10h1l3 6 3-6h1a10.016 10.016 0 0 1 10 10v2z" fill="#ff7956"/><path d="m61 36v2h-6v12h-16v-2.72a21.864 21.864 0 0 0 13-8.28 21.7 21.7 0 0 0 3.97-11.67 10.152 10.152 0 0 1 2.23 1.74 9.928 9.928 0 0 1 2.8 6.93z" fill="#ff5023"/><path d="m56 9v3l-3 3v-5l-8-2-4 2v5l-3-3v-3a6 6 0 0 1 6-6h6a6 6 0 0 1 6 6z" fill="#ffde55"/><path d="m53 15v1a6 6 0 1 1 -12 0v-6l4-2 8 2z" fill="#ffdaaa"/><path d="m56 9v3l-3 3v-2l1-1v-3a6 6 0 0 0 -6-6h2a6 6 0 0 1 6 6z" fill="#ffcd00"/><path d="m53 10v6a5.994 5.994 0 0 1 -6 6 5.47 5.47 0 0 1 -1-.09 5.869 5.869 0 0 0 1.26-.35 6.009 6.009 0 0 0 3.74-5.56v-6l-6.67-1.67.67-.33z" fill="#ffb655"/><g fill="#ffdaaa"><path d="m49.26 21.56.74 4.44h-6l.74-4.44a6.024 6.024 0 0 0 4.52 0z"/><path d="m50 26-3 6-3-6z"/><path d="m39 38v3.27a2.02 2.02 0 0 0 -1.34-.24 2.072 2.072 0 0 0 -1.66 2.08v.89a3 3 0 0 0 -3 3v-9z"/></g><path d="m21 14-2.6.65 1.6 2.35-3.05 2.78-2.3-1.38-.65 2.6h-4l-.65-2.6-2.3 1.38-3.05-2.78 1.6-2.35-2.6-.65v-4l2.6-.65-1.6-2.35 3.05-2.78 2.3 1.38.65-2.6h4l.65 2.6 2.3-1.38 3.05 2.78-1.6 2.35 2.6.65z" fill="#c0ab91"/><path d="m21 14-2.6.65 1.6 2.35-3.05 2.78-2.3-1.38-.65 2.6h-4l-.65-2.6-2.3 1.38-1.45-1.32a13.777 13.777 0 0 0 10.4-5.46 13.121 13.121 0 0 0 2.5-7.37l1.5 1.37-1.6 2.35 2.6.65z" fill="#a78966"/><circle cx="12" cy="12" fill="#ffde55" r="3"/><path d="m61 38v8a4 4 0 0 1 -4 4h-20.83a3.128 3.128 0 0 1 -3.17-2.84v-.16a3 3 0 0 1 3-3v-.89a2.072 2.072 0 0 1 1.66-2.08 2.02 2.02 0 0 1 1.34.24 1.984 1.984 0 0 1 1 1.73v1h15v-6z" fill="#ffdaaa"/><path d="m55 38h6v2h-6z" fill="#ffb655"/><path d="m33 38h6v2h-6z" fill="#ffb655"/><path d="m37 50h20v2h-20z" fill="#ff5023"/><path d="m48 13h2v2h-2z"/><path d="m44 13h2v2h-2z"/><path d="m46 35h2v2h-2z"/><path d="m46 39h2v2h-2z"/><path d="m8 23h-2a5.006 5.006 0 0 0 5 5h14v-2h-14a3 3 0 0 1 -3-3z"/><path d="m12 16a4 4 0 1 0 -4-4 4 4 0 0 0 4 4zm0-6a2 2 0 1 1 -2 2 2 2 0 0 1 2-2z"/><path d="m62 23a9.015 9.015 0 0 0 -6.86-8.73l1.57-1.56a1.033 1.033 0 0 0 .29-.71v-3a7.008 7.008 0 0 0 -7-7h-6a7.008 7.008 0 0 0 -6.94 6.11 14.96 14.96 0 0 0 -19.12-4.34l-.32-.29a1 1 0 0 0 -1.18-.12l-1.15.69-.32-1.29a1 1 0 0 0 -.97-.76h-4a1 1 0 0 0 -.97.76l-.32 1.29-1.15-.69a1 1 0 0 0 -1.18.12l-3.05 2.78a1 1 0 0 0 -.16 1.3l.8 1.17-1.21.3a1 1 0 0 0 -.76.97v4a1 1 0 0 0 .76.97l1.21.3-.8 1.17a1 1 0 0 0 .16 1.3l.23.21a8.989 8.989 0 0 0 7.44 14.05h21.76a11.072 11.072 0 0 0 -.76 4v11h.02a1.477 1.477 0 0 0 -.01.21 4.061 4.061 0 0 0 3.99 3.77v8.02a3.009 3.009 0 0 0 3 3h16a3.009 3.009 0 0 0 3-3v-8.1a5.017 5.017 0 0 0 4-4.9v-10a10.961 10.961 0 0 0 -2.42-6.87 8.957 8.957 0 0 0 2.42-6.13zm-2 0a6.985 6.985 0 0 1 -1.81 4.69 10.954 10.954 0 0 0 -7.19-2.69h-.15l-.48-2.87a7.008 7.008 0 0 0 3.63-6.05 7.012 7.012 0 0 1 6 6.92zm-14.82 2 .36-2.16a6.741 6.741 0 0 0 2.92 0l.36 2.16zm3.2 2-1.38 2.76-1.38-2.76zm-1.38-6a5 5 0 0 1 -5-5v-5.38l3.12-1.56 6.88 1.72v5.22a5 5 0 0 1 -5 5zm-8-12a5 5 0 0 1 5-5h6a5 5 0 0 1 5 5v2.59l-1 1v-2.59a1 1 0 0 0 -.76-.97l-8-2a.978.978 0 0 0 -.69.08l-4 2a.977.977 0 0 0 -.55.89v2.59l-1-1zm-35 1.78 1.84-.46a.992.992 0 0 0 .59-1.53l-1.11-1.64 1.85-1.69 1.66 1a1.023 1.023 0 0 0 .9.07 1.045 1.045 0 0 0 .59-.69l.46-1.84h2.44l.46 1.84a1.045 1.045 0 0 0 .59.69 1.023 1.023 0 0 0 .9-.07l1.66-1 1.85 1.69-1.11 1.64a.992.992 0 0 0 .59 1.53l1.84.46v2.44l-1.84.46a.992.992 0 0 0 -.59 1.53l1.11 1.64-1.85 1.69-1.66-1a1.023 1.023 0 0 0 -.9-.07 1.045 1.045 0 0 0 -.59.69l-.46 1.84h-2.44l-.46-1.84a1.045 1.045 0 0 0 -.59-.69 1.023 1.023 0 0 0 -.9.07l-1.66 1-1.85-1.69 1.11-1.64a.992.992 0 0 0 -.59-1.53l-1.84-.46zm7 19.22a6.982 6.982 0 0 1 -5.94-10.68l1.32 1.2a1.01 1.01 0 0 0 1.18.12l1.15-.69.32 1.29a1 1 0 0 0 .97.76h4a1 1 0 0 0 .97-.76l.32-1.29 1.15.69a1.011 1.011 0 0 0 1.18-.12l3.05-2.78a1 1 0 0 0 .16-1.3l-.8-1.17 1.21-.3a1 1 0 0 0 .76-.97v-4a1 1 0 0 0 -.76-.97l-1.21-.3.8-1.17a1 1 0 0 0 -.16-1.3l-1.15-1.05a12.991 12.991 0 0 1 16.22 4.48 13.713 13.713 0 0 1 1.31 2.64 5.7 5.7 0 0 1 -9.36 5.94l-1.38 1.46a7.945 7.945 0 0 0 5.41 2.14 7.611 7.611 0 0 0 3.78-1 7.735 7.735 0 0 0 3.81-6.14l.69.68v.59a7 7 0 0 0 3.63 6.13l-.48 2.87h-.15a11 11 0 0 0 -9.21 5zm23 9h4v1.01a2.8 2.8 0 0 0 -.5.03 3.086 3.086 0 0 0 -2.5 3.07v.02a3.974 3.974 0 0 0 -1 .41zm22 20a1 1 0 0 1 -1 1h-16a1 1 0 0 1 -1-1v-8h18zm4-13a3.009 3.009 0 0 1 -3 3h-20.83a2.127 2.127 0 0 1 -2.17-1.89 2 2 0 0 1 2-2.11 1 1 0 0 0 1-1v-.89a.973.973 0 0 1 1-1.11.987.987 0 0 1 .65.24 1.011 1.011 0 0 1 .35.76v1a1 1 0 0 0 1 1h15a1 1 0 0 0 1-1v-5h4zm0-10v1h-5a1 1 0 0 0 -1 1v5h-13a3.017 3.017 0 0 0 -1-2.23v-2.77a1 1 0 0 0 -1-1h-5v-1a9.014 9.014 0 0 1 9-9h.38l2.73 5.45a1 1 0 0 0 1.78 0l2.73-5.45h.38a9.014 9.014 0 0 1 9 9z"/><path d="m15 34h2v2h-2z"/><path d="m17 43v-5h-2v5a7.008 7.008 0 0 0 7 7h4v-2h-4a5.006 5.006 0 0 1 -5-5z"/><path d="m28 48h2v2h-2z"/></g></svg>