<svg id="Capa_1" data-name="Capa 1" xmlns="http://www.w3.org/2000/svg" viewBox="0 0 800 400"><defs><style>.cls-1{fill:#f2f2f2;}.cls-2{fill:#3f3d56;}.cls-3{fill:none;stroke:#3f3d56;stroke-miterlimit:10;stroke-width:4px;}.cls-4{fill:#57b793;}.cls-5{opacity:0.1;}.cls-5,.cls-7,.cls-9{isolation:isolate;}.cls-6{fill:#656380;}.cls-7{opacity:0.2;}.cls-8{fill:#00b0ff;}.cls-9{opacity:0.05;}.cls-10{fill:#ffc0c6;}.cls-11{fill:#605d82;}.cls-12{fill:#535070;}.cls-13{font-size:51.92px;fill:#2e3192;font-family:JetBrainsMono-ExtraBold, JetBrains Mono;font-weight:800;}</style></defs><path class="cls-1" d="M308.31,232.18l3.14-1.93.89-.58a30,30,0,0,1-3-58.36l-.16,12.34,6.78-13.43H316a30,30,0,0,1,31.31,28.52h0c0,.57,0,1.13,0,1.68a35.61,35.61,0,0,0,5.91-8.74c2.88-6.4,2.94-13.65,2.7-22.46-.45-17.46-1.2-35.05-2.18-52.59a29.94,29.94,0,0,1-26.6-28.33c0-.92,0-1.83,0-2.72a3.88,3.88,0,0,1,0-.68c.06-.86.14-1.73.27-2.57a2,2,0,0,1,.08-.42c.12-.72.27-1.43.44-2.14.06-.26.13-.52.2-.78a22.74,22.74,0,0,1,.71-2.26c.09-.25.19-.49.28-.73q.33-.81.69-1.62c.13-.28.26-.55.4-.83a1.47,1.47,0,0,1,.1-.22h0a29.93,29.93,0,0,1,35.16-15.19l-.21,16.06,6.72-13.26a29.76,29.76,0,0,1,14.27,32.27h0c-.05.21-.12.42-.17.63q-.13.59-.3,1.17c-.14.5-.3,1-.46,1.48s-.25.74-.39,1.1c-.2.53-.42,1-.66,1.57-.14.3-.26.6-.42.9-.39.77-.81,1.53-1.26,2.27-.16.25-.34.5-.5.75-.32.5-.64,1-1,1.47-.21.29-.44.57-.67.86s-.66.84-1,1.23l-.76.83c-.37.39-.75.76-1.14,1.13s-.51.5-.78.73c-.44.39-.9.77-1.37,1.13-.23.19-.46.38-.7.56-.71.52-1.44,1-2.2,1.48-.14.08-.29.15-.42.24-.63.37-1.26.72-1.93,1.05l-.87.39c-.54.24-1.09.48-1.64.69l-1,.35c-.55.19-1.11.36-1.68.52l-1,.26c-.61.15-1.24.27-1.87.37a.18.18,0,0,0-.12,0q.63,11.1,1.11,22.21a29.92,29.92,0,0,1,40-13.8c.52.25,1,.52,1.54.81l-5.29,14.5,10.89-10.46A29.85,29.85,0,0,1,420,150.34a29,29,0,0,1-.76,8.25,29.94,29.94,0,0,1-55.06,8.16c0,.75.06,1.5.08,2.25.2,7.78.44,17.45-3.43,26.09-2.62,5.85-6.85,10.61-11,14.87-2.71,2.78-5.53,5.46-8.42,8.06a30,30,0,0,1-10.81,9q-7.12,5.48-14.74,10.27l-3.08,2c-2.85,1.77-5.77,3.59-8.64,5.46.5-.05,1-.1,1.52-.12a30,30,0,0,1,29.48,19.49l-18.71,15.23,20.57-4.77a30,30,0,0,1-42.94,27l1.39,1.73c.92,1.14,1.84,2.28,2.73,3.41,12.17,15.42,15.56,30.06,9.53,41.22l-7.33-4c5.88-10.87-2.94-24.77-8.74-32.1-.88-1.11-1.78-2.22-2.68-3.36-7.78-9.65-16.6-20.62-16.37-34C272.83,254.17,292.51,242,308.31,232.18Z"/><ellipse class="cls-2" cx="212.68" cy="343.51" rx="191.2" ry="8.82"/><path class="cls-3" d="M367.15,340.23c1.26-2.32-.17-5.15-1.79-7.21s-3.62-4.2-3.58-6.84c.06-3.78,4.07-6,7.28-8a36.23,36.23,0,0,0,6.53-5.25,9.66,9.66,0,0,0,2-2.69,11,11,0,0,0,.6-4.78q-.21-8.08-.8-16.15"/><path class="cls-4" d="M383.49,289a5.89,5.89,0,0,0-2.94-4.83l-1.32,2.61,0-3.16a5.87,5.87,0,0,0-7.31,3.95,5.53,5.53,0,0,0-.24,2,5.88,5.88,0,1,0,11.75-.55h0Z"/><path class="cls-4" d="M373,328.89a5.88,5.88,0,1,1,.28-4.74l-3.67,3,4-.94A5.84,5.84,0,0,1,373,328.89Z"/><path class="cls-4" d="M370.07,317.44a5.89,5.89,0,0,1-6.15-5.59v0a5.77,5.77,0,0,1,.51-2.69,5.88,5.88,0,0,1,3.78-3.26l0,2.43,1.33-2.65h0a5.9,5.9,0,0,1,.55,11.78Z"/><path class="cls-4" d="M384.38,307.91a5.89,5.89,0,1,1,2.6-11l-1,2.85,2.14-2.05a5.85,5.85,0,0,1,1.9,4.06,5.5,5.5,0,0,1-.15,1.62A5.88,5.88,0,0,1,384.38,307.91Z"/><path class="cls-5" d="M382.7,290.57c-1.36.15-2.69.57-4.05.66a4.44,4.44,0,0,1-3.73-1.31,21,21,0,0,1-1.09-1.91,4.22,4.22,0,0,0-1.48-1.4,5.88,5.88,0,1,0,10.6,5.07,5.34,5.34,0,0,0,.41-1.16Z"/><path class="cls-5" d="M384.38,307.91a5.89,5.89,0,0,1-5.61-8.4A4.49,4.49,0,0,1,380,300.7a21.3,21.3,0,0,0,1.16,1.95A4.83,4.83,0,0,0,385,304c1.42-.07,2.79-.47,4.2-.6.19,0,.39,0,.59,0A5.89,5.89,0,0,1,384.38,307.91Z"/><path class="cls-5" d="M370.07,317.44a5.89,5.89,0,0,1-6.15-5.59v0a5.77,5.77,0,0,1,.51-2.69,5,5,0,0,1,1.26,1.2c.46.65.74,1.39,1.26,2a5.48,5.48,0,0,0,4.17,1.46c1.51,0,2.86-.39,4.31-.5A5.9,5.9,0,0,1,370.07,317.44Z"/><path class="cls-5" d="M373,328.89a5.89,5.89,0,0,1-10.74-4.82,6.15,6.15,0,0,1,1.29,1.15,24,24,0,0,0,1.58,2.1A7.32,7.32,0,0,0,370,329,22.94,22.94,0,0,0,373,328.89Z"/><path class="cls-6" d="M358.27,337.56s4.65-.14,6.05-1.14,7.14-2.19,7.5-.59,7,8,1.74,8-12.2-.84-13.6-1.68S358.27,337.56,358.27,337.56Z"/><path class="cls-7" d="M373.65,343.27c-5.25.05-12.2-.83-13.6-1.67-1.06-.65-1.49-3-1.62-4.06h-.16s.29,3.75,1.68,4.62,8.34,1.71,13.6,1.68c1.51,0,2-.55,2-1.35C375.36,343,374.78,343.27,373.65,343.27Z"/><path class="cls-3" d="M103.09,327.28c-3-5.64.42-12.55,4.38-17.58s8.81-10.26,8.71-16.67c-.15-9.21-9.92-14.65-17.73-19.53a86.11,86.11,0,0,1-15.92-12.8,23.32,23.32,0,0,1-4.9-6.55c-1.61-3.6-1.57-7.69-1.46-11.64q.49-19.72,1.94-39.38"/><path class="cls-4" d="M63.27,202.41a14.33,14.33,0,0,1,7.17-11.75L73.65,197l-.09-7.7a14.36,14.36,0,1,1-9.72,17.84,14.09,14.09,0,0,1-.57-4.74Z"/><path class="cls-4" d="M88.88,299.61A14.35,14.35,0,0,0,116,293.73a14.1,14.1,0,0,0-.93-5.82,14.37,14.37,0,0,0-26.87.15l9,7.3-9.87-2.3A14.2,14.2,0,0,0,88.88,299.61Z"/><path class="cls-4" d="M96,271.73a14.37,14.37,0,0,0,4.56-28.18l.07,5.92L97.37,243h0A14.37,14.37,0,0,0,96,271.73h0Z"/><path class="cls-4" d="M61.11,248.53a14.37,14.37,0,1,0-6.35-26.87l2.52,7-5.2-5a14.29,14.29,0,0,0-4.66,9.92,13.8,13.8,0,0,0,.36,4A14.36,14.36,0,0,0,61.11,248.53Z"/><path class="cls-5" d="M65.2,206.24c3.31.36,6.54,1.39,9.86,1.6s7-.59,9.09-3.18c1.13-1.39,1.7-3.15,2.65-4.67a10.2,10.2,0,0,1,3.62-3.41,14.36,14.36,0,1,1-25.67,12.9,14,14,0,0,1-1.19-3.36C64.11,206.14,64.66,206.18,65.2,206.24Z"/><path class="cls-5" d="M61.11,248.53A14.39,14.39,0,0,0,74.77,228a10.74,10.74,0,0,0-2.89,2.89c-1,1.55-1.64,3.33-2.85,4.75-2.23,2.63-6.05,3.49-9.52,3.33s-6.81-1.14-10.26-1.46c-.48,0-1-.07-1.45-.09A14.36,14.36,0,0,0,61.11,248.53Z"/><path class="cls-5" d="M96,271.73a14.36,14.36,0,0,0,13.78-20.22,11.65,11.65,0,0,0-3,2.94c-1.11,1.57-1.81,3.39-3.12,4.84-2.42,2.7-6.49,3.65-10.16,3.56s-7-1-10.52-1.22A14.37,14.37,0,0,0,96,271.73Z"/><path class="cls-5" d="M88.88,299.61A14.35,14.35,0,0,0,116,293.73a14.1,14.1,0,0,0-.93-5.82,14.27,14.27,0,0,0-3.15,2.81c-1.36,1.67-2.27,3.55-3.85,5.1-2.93,2.88-7.67,4.07-11.89,4.2A61.19,61.19,0,0,1,88.88,299.61Z"/><polygon class="cls-8" points="202.49 335.66 147.08 347 145.82 346.87 97.13 341.96 97.13 280.25 156.74 270.18 199.97 275.22 199.99 275.49 199.99 275.63 202.49 335.66"/><polygon class="cls-5" points="202.49 335.66 147.08 347 145.82 346.87 145.82 283.61 199.99 275.49 202.49 335.66"/><polygon class="cls-9" points="199.99 275.63 199.97 275.64 145.82 283.61 97.13 280.25 156.74 270.18 199.97 275.22 199.99 275.49 199.99 275.63"/><polygon class="cls-2" points="263.36 338.18 207.95 349.52 206.69 349.39 158 344.48 158 282.77 217.6 272.7 260.84 277.74 260.85 278.01 260.86 278.14 263.36 338.18"/><polygon class="cls-5" points="263.36 338.18 207.95 349.52 206.69 349.39 206.69 286.13 260.85 278.01 263.36 338.18"/><polygon class="cls-9" points="260.86 278.14 260.84 278.16 206.69 286.13 158 282.77 217.6 272.7 260.84 277.74 260.85 278.01 260.86 278.14"/><polygon class="cls-2" points="225.16 277.74 169.75 289.07 168.49 288.94 119.8 284.03 119.8 222.33 179.4 212.25 222.64 217.29 222.65 217.56 222.66 217.7 225.16 277.74"/><polygon class="cls-5" points="225.16 277.74 169.75 289.07 168.49 288.94 168.49 225.69 222.65 217.56 225.16 277.74"/><polygon class="cls-9" points="222.66 217.7 222.64 217.71 168.49 225.69 119.8 222.33 179.4 212.25 222.64 217.29 222.65 217.56 222.66 217.7"/><polygon class="cls-2" points="256.64 280.32 227.72 286.24 227.06 286.17 201.65 283.61 201.65 251.4 232.76 246.15 255.33 248.78 255.34 248.92 255.34 248.99 256.64 280.32"/><polygon class="cls-5" points="256.64 280.32 227.72 286.24 227.06 286.17 227.06 253.16 255.34 248.92 256.64 280.32"/><polygon class="cls-9" points="255.34 248.99 255.33 249 227.06 253.16 201.65 251.4 232.76 246.15 255.33 248.78 255.34 248.92 255.34 248.99"/><polygon class="cls-2" points="178.98 217.78 150.07 223.69 149.41 223.63 123.99 221.06 123.99 188.86 155.1 183.6 177.67 186.23 177.68 186.37 177.68 186.44 178.98 217.78"/><polygon class="cls-5" points="178.98 217.78 150.07 223.69 149.41 223.63 149.41 190.61 177.68 186.37 178.98 217.78"/><polygon class="cls-9" points="177.68 186.44 177.67 186.45 149.41 190.61 123.99 188.86 155.1 183.6 177.67 186.23 177.68 186.37 177.68 186.44"/><polygon class="cls-8" points="229.78 216.52 200.86 222.43 200.2 222.37 174.79 219.8 174.79 187.6 205.9 182.34 228.46 184.97 228.47 185.12 228.47 185.18 229.78 216.52"/><polygon class="cls-5" points="229.78 216.52 200.86 222.43 200.2 222.37 200.2 189.35 228.47 185.12 229.78 216.52"/><polygon class="cls-9" points="228.47 185.18 228.46 185.19 200.2 189.35 174.79 187.6 205.9 182.34 228.46 184.97 228.47 185.12 228.47 185.18"/><polygon class="cls-2" points="244.89 184.2 215.97 190.11 215.31 190.05 189.9 187.48 189.9 155.28 221.01 150.02 243.57 152.65 243.58 152.79 243.58 152.86 244.89 184.2"/><polygon class="cls-5" points="244.89 184.2 215.97 190.11 215.31 190.05 215.31 157.03 243.58 152.79 244.89 184.2"/><polygon class="cls-9" points="243.58 152.86 243.57 152.87 215.31 157.03 189.9 155.28 221.01 150.02 243.57 152.65 243.58 152.79 243.58 152.86"/><path class="cls-10" d="M264.58,118.36c-.3,2.73-2.39,4.93-3.16,7.56-1.16,4,.84,8.22,3.59,11.33a25.16,25.16,0,0,0,17.48,8.29,7.59,7.59,0,0,0,2.88-.32,6.38,6.38,0,0,0,2.2-1.5,14.1,14.1,0,0,0,3.62-7.86,42.14,42.14,0,0,0,.1-8.77,4.84,4.84,0,0,0-.33-1.77,4.42,4.42,0,0,0-1.14-1.4,26.71,26.71,0,0,0-4.89-3.56,5.66,5.66,0,0,1-2.05-1.56,5.23,5.23,0,0,1-.63-1.88l-.54-2.75a5.57,5.57,0,0,0-.79-2.24c-1-1.28-2.78-1.46-4.38-1.52l-5.88-.23c-1.83-.07-4.23-.6-6-.24s-1.11,1.87-.81,3.26A23.11,23.11,0,0,1,264.58,118.36Z"/><path class="cls-5" d="M264.58,118.36c-.3,2.73-2.39,4.93-3.16,7.56-1.16,4,.84,8.22,3.59,11.33a25.16,25.16,0,0,0,17.48,8.29,7.59,7.59,0,0,0,2.88-.32,6.38,6.38,0,0,0,2.2-1.5,14.1,14.1,0,0,0,3.62-7.86,42.14,42.14,0,0,0,.1-8.77,4.84,4.84,0,0,0-.33-1.77,4.42,4.42,0,0,0-1.14-1.4,26.71,26.71,0,0,0-4.89-3.56,5.66,5.66,0,0,1-2.05-1.56,5.23,5.23,0,0,1-.63-1.88l-.54-2.75a5.57,5.57,0,0,0-.79-2.24c-1-1.28-2.78-1.46-4.38-1.52l-5.88-.23c-1.83-.07-4.23-.6-6-.24s-1.11,1.87-.81,3.26A23.11,23.11,0,0,1,264.58,118.36Z"/><path class="cls-11" d="M301.9,241.25l-2.49,27.34c-.65,7.17-1.31,14.36-2.59,21.44-.42,2.44-1,4.87-1.57,7.27-1.7,6.68-4.18,13.21-5,20.05,0,.2,0,.42-.07.6a17.87,17.87,0,0,1-.84,4.45c-.42,1.05-1,2-1.44,3a19.76,19.76,0,0,0-1.08,6.59,28.35,28.35,0,0,0-9.78-3.36c-1.68-.25-3.5-.42-4.62-1.68s-1.11-3.46-.9-5.3q1-8.56,2-17.12a45,45,0,0,1,1.26-7.27c.23-.79.5-1.57.78-2.35.38-1.08.77-2.15,1.06-3.25a39.44,39.44,0,0,0,.83-5.39c.67-5.74,1.49-11.47,2.2-17.21l0-.3a176.79,176.79,0,0,0,1.65-26.2c0-1.3-.09-2.59-.17-3.9-.12-1.88-.29-2.88,1.26-4.06a29,29,0,0,1,6-3.06c1.06-.47,12.75-4.62,13-3.71a23.25,23.25,0,0,1,.84,6A65.59,65.59,0,0,1,301.9,241.25Z"/><path class="cls-5" d="M296.82,290c-.42,2.44-1,4.87-1.57,7.27-1.7,6.68-4.18,13.21-5,20.05,0,.2,0,.42-.07.6-5.21-7.44-9.6-15.45-14.69-23,.38-1.07.77-2.15,1.06-3.25a41.33,41.33,0,0,0,.87-5.42c.67-5.74,1.49-11.47,2.2-17.21l0-.3a17.9,17.9,0,0,0,1.26,3.53c3.42,6.94,11.53,10.45,15.51,17.09C296.59,289.62,296.71,289.83,296.82,290Z"/><path class="cls-11" d="M254.52,229a128.58,128.58,0,0,0,2,16.58l1.83,11.34c1,6.21,2.06,12.54,5,18.11,2.2,4.16,5.37,7.71,8.24,11.44,7,9.18,12.33,19.58,19,29,1.94,2.75,4.72,5.72,8,5.14,2.18-.37,3.75-2.18,5.46-3.58,2-1.64,4.44-2.85,6-4.91s1.89-5.49-.26-7a11.36,11.36,0,0,0-2.46-1c-3.32-1.26-5.48-4.52-6.85-7.81s-2.2-6.82-4-9.88c-4-6.64-12.09-10.15-15.51-17.1-1.91-3.89-2.1-8.39-2.24-12.71l-.38-11a8.11,8.11,0,0,1,.42-3.57c1.31-2.94,5.26-3.21,8.45-3.59a28.84,28.84,0,0,0,10.36-3.26,10.85,10.85,0,0,0,4.62-4.11,13.11,13.11,0,0,0,1.12-5.56l1.11-20a12.58,12.58,0,0,0-.42-5.12c-1.52-4-6.64-5.38-11-5.19-8,.36-15.48,3.83-23.09,6.17a58.56,58.56,0,0,1-5.72,1.49c-1.68.34-3.78.2-5.39.75-2.89,1-2.82,7.29-3.22,9.91A82.61,82.61,0,0,0,254.52,229Z"/><path class="cls-12" d="M297.48,321.47a5.1,5.1,0,0,1,1.12,2.76,94.23,94.23,0,0,1,1.6,16.67,2.74,2.74,0,0,0,.3,1.51,1.92,1.92,0,0,0,.78.63c2.06,1,4.44-.39,6.15-1.89,3.17-2.77,5.85-6.5,6-10.71a25.16,25.16,0,0,1,.11-3.25,13.78,13.78,0,0,1,2-4.35,36.66,36.66,0,0,0,3.36-7.48c.31-1,.52-2.22-.25-2.9a2.47,2.47,0,0,0-.91-.47l-9.28-3.45c-.8-.29-2.8,4.84-3.12,5.4a4.25,4.25,0,0,1-3.1,2.47c-1.56.32-3.48-.14-5,.65C294.8,318.4,296.06,320,297.48,321.47Z"/><path class="cls-12" d="M283.17,324.64a2.77,2.77,0,0,0-.7-.89,3.18,3.18,0,0,0-1.42-.49c-1.77-.3-3.86-.5-5.08.82s-.94,3.23-1.9,4.62a13.56,13.56,0,0,0-1,1.26,4.71,4.71,0,0,0-.42,2.25c-.05,2.14-.1,4.29.05,6.42a8.91,8.91,0,0,0,1.54,5.06c1.8,2.25,5,2.58,7.91,2.72l2.33.12a4.52,4.52,0,0,0,1.9-.17,3.13,3.13,0,0,0,1.65-1.81c1.21-3-.71-6.26-1.89-9.28C284.81,331.79,285.05,327.93,283.17,324.64Z"/><path class="cls-2" d="M263.91,103a2,2,0,0,1,.13-.9c.34-.6,1.23-.42,1.9-.27,2.7.68,5.55.06,8.33.22s5.92,1.55,6.47,4.28a20.44,20.44,0,0,0,5.14-5.27,6.4,6.4,0,0,0,1.34-3.87c-.15-2-1.83-3.49-3.36-4.76l-4.62-3.77a7,7,0,0,0-2.07-1.32,10.21,10.21,0,0,0-3.36-.19c-3.36,0-7-1.53-9.95,0A10.71,10.71,0,0,0,260.75,90l-4.12,4.89A2.67,2.67,0,0,0,256,96a5.08,5.08,0,0,0,.3,1.78c.2,1.09-.27,2.26.09,3.31.6,1.74,2.71,2,4,3,.47.37,1.23,1.64,1.8,1.62C263.18,105.63,263.88,103.78,263.91,103Z"/><circle class="cls-10" cx="270.91" cy="104.16" r="13.22"/><path class="cls-2" d="M274,133.1a6.4,6.4,0,0,0-6.22-4.29,1.9,1.9,0,0,1-1.15-.15,1.6,1.6,0,0,1-.47-.59,23.21,23.21,0,0,1-1.93-4.56c-.21-.7-.5-1.52-1.21-1.7a1.6,1.6,0,0,0-1.53.67,16.22,16.22,0,0,1-1.1,1.38c-1.68,1.48-4.62.13-6.38,1.49-.29.23-.53.51-.84.72a4.19,4.19,0,0,1-1,.42,92.37,92.37,0,0,0-10,3.91c1.17,7.07,2.37,14.27,5.13,20.89,1.31,3.14,2.79,6.23,3.84,9.47,2.32,7.19,2.42,14.89,2.45,22.45,0,5.17,0,10.45-1.67,15.35a14.83,14.83,0,0,0-.95,3.35,3.51,3.51,0,0,0,1.18,3.14,4,4,0,0,0,1.83.65c2.9.42,5.82-.35,8.68-1a233.84,233.84,0,0,1,23.24-3.78L299,199.23a7.49,7.49,0,0,0,2.7-.7c2.39-1.3,2.62-4.9,1.13-7.18-.71-1.1-1.71-2-2.31-3.15s-.65-2.79.38-3.59c2.1-1.64,1.47-4.67,1.57-7.33q.42-11.13-.11-22.25a41.68,41.68,0,0,1-.08-4.61,40.75,40.75,0,0,1,1.44-7.71l4-15.62a8.16,8.16,0,0,0-4.9-3.14c-1.88-.47-3.84-.61-5.69-1.19-3.78-1.17-7.17-4.15-11.13-3.88a2.14,2.14,0,0,0-.86.21c-.89.51-.75,1.8-.81,2.82-.12,2.27-1.79,4.16-3.63,5.5s-3.95,2.29-5.64,3.81A2.5,2.5,0,0,0,274,133.1Z"/><path class="cls-10" d="M221.62,147.91a15.54,15.54,0,0,1-2.78,1.43,9.27,9.27,0,0,0-2.66,1.3,4.09,4.09,0,0,0-.93,1.14,5.09,5.09,0,0,0,4.69,7.59,10.46,10.46,0,0,0,3.47-1l9.33-4.06c1.58-.68,3.28-1.48,4-3a.76.76,0,0,0,.09-.49.82.82,0,0,0-.38-.42,20.52,20.52,0,0,1-5.43-5.12c-.38-.52-.84-1.74-1.4-2.06C227.68,142.06,223.2,146.89,221.62,147.91Z"/><path class="cls-10" d="M321.32,144.62l3.44,3.92c.74.84,1.48,1.68,2.15,2.59a30.2,30.2,0,0,1,3.94,7.42,13.05,13.05,0,0,1,1.11,6.13,15.38,15.38,0,0,1-.87,3.12,39.37,39.37,0,0,1-2.33,5.62,32.46,32.46,0,0,1-2.62,3.94,91.81,91.81,0,0,1-8.72,10c-1.17,1.16-1.68,3-2.18,4.61-.94,2.91-3.19,5.17-5.36,7.31a14.48,14.48,0,0,1-2.3,2,7.43,7.43,0,0,1-4.2,1.19,4.5,4.5,0,0,1-1.88-.39,4.87,4.87,0,0,1-2.4-4.06,8.67,8.67,0,0,1,.72-4.35c2-4.37,7-6.26,10.62-9.45a34.89,34.89,0,0,0,5.3-6.54,22.64,22.64,0,0,0,2.67-4.69c.8-2.13.49-4.66,1.19-6.83.29-.92.84-1.74,1.13-2.65a3.18,3.18,0,0,0-.15-2.78,4.1,4.1,0,0,0-1.56-1.14c-2.29-1.16-4.85-2.65-5.29-5.19a5.52,5.52,0,0,1,1-3.95,16.22,16.22,0,0,1,2.88-3C318.64,146.48,320.32,145.48,321.32,144.62Z"/><path class="cls-10" d="M219.41,153.39a6.33,6.33,0,0,0-2.59-3.08,4.77,4.77,0,0,0-3.78,0,13.92,13.92,0,0,0-3.3,2l-3,2.18a7.36,7.36,0,0,0-1.76,1.63,6.64,6.64,0,0,0-.91,2.52,18.34,18.34,0,0,0-.47,6.21c.47,3.36,2.49,6.27,4.7,8.82,1.39,1.58,3.1,3.19,5.21,3.26a2.39,2.39,0,0,0,2.3-1.16,3.05,3.05,0,0,0,.21-1c.22-3.73-1.11-7.37-2.67-10.76a6.77,6.77,0,0,1-.84-2.9.65.65,0,0,1,.63-.73c2.13-.42,5.8,1.23,7.29-1.13C221.43,157.66,220.1,154.78,219.41,153.39Z"/><path class="cls-2" d="M263.21,98.82a2,2,0,0,1,.14-.9c.34-.61,1.23-.42,1.9-.27,2.7.68,5.55.06,8.33.22s5.91,1.55,6.47,4.28a20.24,20.24,0,0,0,5.13-5.27A6.27,6.27,0,0,0,286.52,93c-.15-2-1.83-3.49-3.35-4.76l-4.62-3.77a7,7,0,0,0-2.07-1.32,10.2,10.2,0,0,0-3.36-.19c-3.36,0-7-1.53-9.95,0a10.55,10.55,0,0,0-3.1,2.82l-4.13,4.89a2.46,2.46,0,0,0-.66,1.12,5.07,5.07,0,0,0,.29,1.78c.2,1.09-.27,2.26.09,3.3.6,1.75,2.71,2,4,3,.48.37,1.23,1.64,1.81,1.62C262.47,101.47,263.18,99.62,263.21,98.82Z"/><path class="cls-2" d="M235.13,135.05a5.46,5.46,0,0,0-1.38,1.29c-.49.73-.59,1.68-1,2.43-.89,1.66-3,2.25-4.28,3.6a1.44,1.44,0,0,0-.42.71,1.64,1.64,0,0,0,.35,1l6.27,9.85c2.1.19,4.09-1.12,6.18-.95a6.13,6.13,0,0,0,2.33.1,6.54,6.54,0,0,0,1.49-.91c1.26-.79,2.9-.88,4-1.92s1.13-2.56,1.12-4a16,16,0,0,0-.37-3.65c-.93-3.78-3.82-6.69-5.63-10-.89-1.64-1.37-2.59-3.24-1.47S236.9,133.76,235.13,135.05Z"/><path class="cls-2" d="M311.28,130.07a14.58,14.58,0,0,1,3.16,2.76c.95,1.23,1.49,2.74,2.41,4a42.31,42.31,0,0,0,3.11,3.29,24.89,24.89,0,0,1,3.58,5.84,86.82,86.82,0,0,1-8.11,9.15,2.63,2.63,0,0,1-1.23.81,2,2,0,0,1-1.74-.71c-.45-.47-.77-1.06-1.2-1.55a6.18,6.18,0,0,0-3.84-1.85,26.2,26.2,0,0,0-4.34-.07,1.66,1.66,0,0,1-.93-.15,1.55,1.55,0,0,1-.5-.58c-1.68-2.89-1.16-6.52-.56-9.82l1.38-7.55a17.09,17.09,0,0,1,1.14-4.2c.52-1.11,1.68-3,3.12-2.66S310.07,129.19,311.28,130.07Z"/><polygon class="cls-8" points="191.58 185.46 162.66 191.37 162 191.31 136.59 188.74 136.59 156.54 167.7 151.28 190.26 153.91 190.27 154.05 190.27 154.12 191.58 185.46"/><polygon class="cls-5" points="191.58 185.46 162.66 191.37 162 191.31 162 158.29 190.27 154.05 191.58 185.46"/><polygon class="cls-9" points="190.27 154.12 190.26 154.13 162 158.29 136.59 156.54 167.7 151.28 190.26 153.91 190.27 154.05 190.27 154.12"/><polygon class="cls-2" points="206.69 153.55 177.77 159.47 177.11 159.4 151.7 156.84 151.7 124.64 182.81 119.38 205.38 122.01 205.38 122.15 205.38 122.22 206.69 153.55"/><polygon class="cls-5" points="206.69 153.55 177.77 159.47 177.11 159.4 177.11 126.39 205.38 122.15 206.69 153.55"/><polygon class="cls-9" points="205.38 122.22 205.38 122.23 177.11 126.39 151.7 124.64 182.81 119.38 205.38 122.01 205.38 122.15 205.38 122.22"/><text class="cls-13" transform="translate(363.81 183.65)">Gestiona tu<tspan x="0" y="62.31" xml:space="preserve">   inventario</tspan></text></svg>