<svg id="Capa_1" data-name="Capa 1" xmlns="http://www.w3.org/2000/svg" xmlns:xlink="http://www.w3.org/1999/xlink" viewBox="0 0 800 400"><defs><style>.cls-1{fill:#3f3d56;}.cls-2{fill:#f2f2f2;}.cls-3{fill:url(#Degradado_sin_nombre_9);}.cls-4{fill:#00b0ff;}.cls-5{fill:#f55f44;}.cls-6{fill:#fda57d;}.cls-7{opacity:0.05;}.cls-10,.cls-16,.cls-25,.cls-7{isolation:isolate;}.cls-8{opacity:0.7;}.cls-9{fill:url(#Degradado_sin_nombre_9-2);}.cls-10,.cls-16{opacity:0.1;}.cls-11{fill:#e0e0e0;}.cls-12{fill:url(#Degradado_sin_nombre_9-3);}.cls-13,.cls-16{fill:#535461;}.cls-14{fill:#fff;}.cls-15{fill:#eee;}.cls-17{opacity:0.5;}.cls-18{fill:url(#Degradado_sin_nombre_9-4);}.cls-19{fill:#f5f5f5;}.cls-20{fill:url(#Degradado_sin_nombre_9-5);}.cls-21{fill:url(#Degradado_sin_nombre_9-6);}.cls-22,.cls-25{opacity:0.6;}.cls-23{fill:#bdbdbd;}.cls-24{fill:url(#Degradado_sin_nombre_9-7);}.cls-25{fill:#3ad29f;}.cls-26{fill:url(#Degradado_sin_nombre_9-8);}.cls-27{fill:url(#Degradado_sin_nombre_9-9);}.cls-28{fill:#69f0ae;}.cls-29{font-size:51.92px;fill:#2e3192;font-family:JetBrainsMono-ExtraBold, JetBrains Mono;font-weight:800;}</style><linearGradient id="Degradado_sin_nombre_9" x1="350.89" y1="-55.76" x2="350.89" y2="138.43" gradientTransform="matrix(1, 0, 0, -1, -168.58, 239)" gradientUnits="userSpaceOnUse"><stop offset="0" stop-color="gray" stop-opacity="0.25"/><stop offset="0.54" stop-color="gray" stop-opacity="0.12"/><stop offset="1" stop-color="gray" stop-opacity="0.1"/></linearGradient><linearGradient id="Degradado_sin_nombre_9-2" x1="481.84" y1="-86.83" x2="481.84" y2="-55.09" xlink:href="#Degradado_sin_nombre_9"/><linearGradient id="Degradado_sin_nombre_9-3" x1="182.08" y1="77.55" x2="182.08" y2="159.8" gradientTransform="matrix(1, 0, 0, -1, 0, 402)" xlink:href="#Degradado_sin_nombre_9"/><linearGradient id="Degradado_sin_nombre_9-4" x1="284.2" y1="295.76" x2="284.2" y2="344.85" gradientTransform="matrix(1, 0, 0, -1, 0, 402)" xlink:href="#Degradado_sin_nombre_9"/><linearGradient id="Degradado_sin_nombre_9-5" x1="292.23" y1="284.42" x2="292.23" y2="333.5" gradientTransform="matrix(1, 0, 0, -1, 0, 402)" xlink:href="#Degradado_sin_nombre_9"/><linearGradient id="Degradado_sin_nombre_9-6" x1="355.47" y1="297.93" x2="355.47" y2="326.08" gradientTransform="matrix(1, 0, 0, -1, 0, 402)" xlink:href="#Degradado_sin_nombre_9"/><linearGradient id="Degradado_sin_nombre_9-7" x1="415.49" y1="275.64" x2="415.49" y2="350.71" gradientTransform="matrix(1, 0, 0, -1, 0, 402)" xlink:href="#Degradado_sin_nombre_9"/><linearGradient id="Degradado_sin_nombre_9-8" x1="365.25" y1="223.34" x2="365.25" y2="254.52" gradientTransform="matrix(1, 0, 0, -1, 0, 402)" xlink:href="#Degradado_sin_nombre_9"/><linearGradient id="Degradado_sin_nombre_9-9" x1="346.02" y1="227.31" x2="346.02" y2="265.96" gradientTransform="matrix(1, 0, 0, -1, 0, 402)" xlink:href="#Degradado_sin_nombre_9"/></defs><path class="cls-1" d="M69,304.92c0,9.82-5.83,13.25-13,13.25h-.5c-.33,0-.66,0-1,0-6.5-.46-11.55-4.07-11.55-13.2,0-9.45,12.08-21.38,13-22.27h0l.05,0S69,295.1,69,304.92Z"/><path class="cls-2" d="M55.49,316.67,60.26,310l-4.78,7.4,0,.76c-.33,0-.66,0-1,0l.52-9.83v-.09l0-.93-4.79-7.41,4.81,6.72v.19l.39-7.42-4.11-7.66,4.16,6.36.4-15.4v0l-.07,12.14L59.93,290l-4.1,5.86-.11,6.64,3.81-6.38-3.83,7.36-.06,3.7,5.54-8.88-5.56,10.17Z"/><path class="cls-3" d="M234.69,248.13c-3.49-12.65-22.83-22-37.93-24.38v-6.07l.84-.32a13.5,13.5,0,0,0-.73-3.56,36.59,36.59,0,0,0,16-12.7,41.28,41.28,0,0,0-1.32-58.36,42.07,42.07,0,0,0-6.83-5.28,8.1,8.1,0,0,0-3.62-14.92,15.81,15.81,0,0,0-24.61-18.36,15.81,15.81,0,0,1,23.23,13.95c0,.14,0,.28,0,.42a15.81,15.81,0,1,0-30.65,5.91A7.92,7.92,0,0,0,163.88,136a41.27,41.27,0,0,0-10.06,65.65,36.55,36.55,0,0,0,14.88,11.8v10.13c-15.25,2.18-35.34,11.67-38.85,24.63-3.06,11.29-6.32,23.7-7.95,31,13.93,9.78,43.15,15.53,61.46,15.53,17.4,0,45.84-5.19,59.35-14.1C241.25,272.66,237.88,259.71,234.69,248.13Zm-27.9-116.82c0,.14,0,.28,0,.42a7.91,7.91,0,0,0-6.56-7.34c.15-.26.29-.52.43-.79A7.9,7.9,0,0,1,206.79,131.31Z"/><path class="cls-4" d="M183.33,292c16.9,0,44.53-5,57.66-13.69-1.42-7.78-4.69-20.35-7.79-31.61-3.95-14.33-28.88-24.27-43.75-24.27H175.12c-14.91,0-39.88,10-43.78,24.39-3,11-6.14,23-7.72,30.09C137.15,286.41,165.54,292,183.33,292Z"/><circle class="cls-5" cx="183.06" cy="173.3" r="40.1"/><path class="cls-6" d="M172.23,201.17h21a3.14,3.14,0,0,1,3.14,3.14h0v21.46a12.9,12.9,0,0,1-12.89,12.89H182a12.9,12.9,0,0,1-12.89-12.89h0V204.31a3.15,3.15,0,0,1,3.14-3.14Z"/><path class="cls-7" d="M184,219.34a35.4,35.4,0,0,0,13.18-2.54,13.06,13.06,0,0,0-13-12.22H183a13.07,13.07,0,0,0-13,11.89A35.4,35.4,0,0,0,184,219.34Z"/><circle class="cls-6" cx="183.13" cy="180.45" r="35.48"/><circle class="cls-5" cx="171.11" cy="134.05" r="7.68"/><circle class="cls-5" cx="198.42" cy="134.05" r="7.68"/><circle class="cls-5" cx="183.91" cy="121.25" r="15.36"/><path class="cls-5" d="M200.12,124.66a7.68,7.68,0,0,0-4.28,1.31,7.68,7.68,0,0,1,6.86,13.6,7.68,7.68,0,0,0-2.58-14.91Z"/><path class="cls-5" d="M186.47,103.33a15.36,15.36,0,0,0-9.77,3.51,15.36,15.36,0,0,1,17,25.41,15.36,15.36,0,0,0-7.21-28.92Z"/><path class="cls-5" d="M157.46,148.55s4.27,28.16,58,12.8l-26.45-23Z"/><rect class="cls-4" x="37.69" y="309.8" width="36.96" height="15.73" rx="7.44"/><g class="cls-8"><path class="cls-9" d="M323.74,299.76v-5.67H295.41V320.3a5.53,5.53,0,0,0,5.52,5.53h17.29a5.53,5.53,0,0,0,5.52-5.53v-5.81a7.37,7.37,0,1,0,0-14.73Zm0,11.9v-9.07a4.54,4.54,0,1,1,0,9.07Z"/></g><path class="cls-4" d="M322.83,300.64a6.73,6.73,0,1,0,6.73,6.73,6.73,6.73,0,0,0-6.73-6.73Zm0,10.87a4.14,4.14,0,1,1,4.14-4.14h0A4.14,4.14,0,0,1,322.83,311.51Z"/><path class="cls-10" d="M322.83,300.64a6.73,6.73,0,1,0,6.73,6.73,6.73,6.73,0,0,0-6.73-6.73Zm0,10.87a4.14,4.14,0,1,1,4.14-4.14h0A4.14,4.14,0,0,1,322.83,311.51Z"/><path class="cls-4" d="M297,295.47h25.87v23.9a5.08,5.08,0,0,1-5.07,5.08H302a5.08,5.08,0,0,1-5.07-5.08v-23.9Z"/><rect class="cls-11" x="14.17" y="324.45" width="335.83" height="11.38"/><g class="cls-8"><rect class="cls-12" x="110.67" y="242.2" width="142.82" height="82.24" rx="7.54"/></g><rect class="cls-13" x="113.26" y="243.72" width="137.64" height="80.72" rx="13.96"/><circle class="cls-14" cx="182.08" cy="284.08" r="4.66"/><rect class="cls-11" x="28.4" y="335.83" width="307.37" height="4.66"/><rect class="cls-10" x="28.4" y="335.83" width="307.37" height="1.55"/><path class="cls-10" d="M318.17,295.47V319.4a5,5,0,0,1-5,5.05h2.59a5,5,0,0,0,5-5.05V295.47Z"/><path class="cls-15" d="M302.06,276.18a1.52,1.52,0,0,0-1.14.58c-.34.61.28,1.31.84,1.73a11.14,11.14,0,0,1,2.83,2.64,3.31,3.31,0,0,1,.16,3.66c-1,1.36-3.41,1.65-3.64,3.33-.15,1.08.78,2,1.73,2.54,2.33,1.34,5.33,1.69,7,3.78a5.42,5.42,0,0,1,3.82-2.62c1.55-.35,3.17-.33,4.75-.57a1.66,1.66,0,0,0,1.31-.69c.44-.9-.81-2-.38-2.87.33-.69,1.3-.63,2-.91a2.61,2.61,0,0,0,1.3-3.12,5.85,5.85,0,0,0-2.22-2.89,25.18,25.18,0,0,0-9-4.15,23.14,23.14,0,0,0-4.76-1.1A24,24,0,0,0,302.06,276.18Z"/><rect class="cls-16" x="236.99" y="41.9" width="226.01" height="154.84"/><g class="cls-17"><rect class="cls-18" x="257.6" y="57.15" width="53.2" height="49.09" rx="2.34"/></g><rect class="cls-19" x="258.25" y="57.53" width="51.97" height="47.89" rx="2.34"/><rect class="cls-4" x="262.26" y="65.42" width="8.77" height="7.89" rx="2.34"/><rect class="cls-11" x="273.65" y="65.42" width="34.84" height="0.88" rx="0.41"/><rect class="cls-11" x="273.65" y="68.05" width="34.84" height="0.88" rx="0.41"/><rect class="cls-11" x="261.38" y="77.6" width="47.12" height="0.88" rx="0.41"/><rect class="cls-11" x="261.38" y="80.23" width="47.12" height="0.88" rx="0.41"/><rect class="cls-11" x="261.38" y="83.73" width="47.12" height="0.88" rx="0.41"/><rect class="cls-11" x="261.38" y="86.36" width="27.17" height="0.88" rx="0.41"/><rect class="cls-11" x="261.38" y="89.86" width="47.12" height="0.88" rx="0.41"/><rect class="cls-11" x="261.38" y="92.49" width="47.12" height="0.88" rx="0.41"/><rect class="cls-11" x="261.38" y="95.99" width="47.12" height="0.88" rx="0.41"/><rect class="cls-11" x="261.38" y="98.62" width="27.17" height="0.88" rx="0.41"/><g class="cls-17"><rect class="cls-20" x="265.63" y="68.5" width="53.2" height="49.09" rx="2.34"/></g><rect class="cls-14" x="266.28" y="68.88" width="51.97" height="47.89" rx="2.34"/><rect class="cls-4" x="270.29" y="76.77" width="8.77" height="7.89" rx="2.34"/><rect class="cls-11" x="281.68" y="76.77" width="34.84" height="0.88" rx="0.41"/><rect class="cls-11" x="281.68" y="79.39" width="34.84" height="0.88" rx="0.41"/><rect class="cls-11" x="269.41" y="88.94" width="47.12" height="0.88" rx="0.41"/><rect class="cls-11" x="269.41" y="91.57" width="47.12" height="0.88" rx="0.41"/><rect class="cls-11" x="269.41" y="95.07" width="47.12" height="0.88" rx="0.41"/><rect class="cls-11" x="269.41" y="97.7" width="27.17" height="0.88" rx="0.41"/><rect class="cls-11" x="269.41" y="101.2" width="47.12" height="0.88" rx="0.41"/><rect class="cls-11" x="269.41" y="103.83" width="47.12" height="0.88" rx="0.41"/><rect class="cls-11" x="269.41" y="107.34" width="47.12" height="0.88" rx="0.41"/><rect class="cls-11" x="269.41" y="109.97" width="27.17" height="0.88" rx="0.41"/><rect class="cls-21" x="340.82" y="75.92" width="29.3" height="28.15"/><rect class="cls-19" x="341.28" y="76.61" width="28.38" height="26.89"/><g class="cls-22"><rect class="cls-4" x="350.59" y="92.58" width="10.23" height="1.38"/></g><rect class="cls-23" x="346.74" y="95.11" width="17.47" height="1.38"/><g class="cls-17"><rect class="cls-24" x="383.54" y="51.29" width="63.9" height="75.07"/></g><rect class="cls-14" x="385.51" y="52.5" width="60.57" height="72.2"/><rect class="cls-11" x="394.57" y="84.18" width="42.6" height="1.81"/><rect class="cls-11" x="394.57" y="96.11" width="42.6" height="1.81"/><rect class="cls-11" x="394.57" y="99.28" width="42.6" height="1.81"/><rect class="cls-11" x="394.57" y="92.94" width="17.98" height="1.81"/><rect class="cls-25" x="423.72" y="92.94" width="13.44" height="1.81"/><rect class="cls-4" x="409.53" y="106.68" width="13.44" height="1.81"/><g class="cls-17"><rect class="cls-26" x="346.26" y="147.48" width="37.97" height="31.18"/></g><rect class="cls-2" x="346.7" y="148.07" width="37.01" height="30.08"/><rect class="cls-4" x="346.7" y="148.07" width="37.01" height="6.71"/><rect class="cls-10" x="346.7" y="148.07" width="37.01" height="6.71"/><rect class="cls-11" x="349.65" y="157.21" width="31.11" height="3.91"/><rect class="cls-11" x="349.65" y="164.06" width="22.71" height="1.33"/><rect class="cls-11" x="349.65" y="166.35" width="14.74" height="1.33"/><rect class="cls-11" x="349.65" y="168.63" width="19.46" height="1.33"/><rect class="cls-11" x="349.65" y="170.92" width="22.71" height="1.33"/><rect class="cls-11" x="349.65" y="173.21" width="7.59" height="1.33"/><g class="cls-17"><rect class="cls-27" x="322.49" y="136.04" width="47.06" height="38.65"/></g><rect class="cls-14" x="323.04" y="136.77" width="45.87" height="37.28"/><rect class="cls-4" x="323.04" y="136.77" width="45.87" height="8.32"/><rect class="cls-19" x="326.69" y="148.1" width="38.56" height="4.84"/><rect class="cls-11" x="326.69" y="156.6" width="28.14" height="1.64"/><rect class="cls-11" x="326.69" y="159.43" width="18.27" height="1.64"/><rect class="cls-11" x="326.69" y="162.26" width="24.12" height="1.64"/><rect class="cls-11" x="326.69" y="165.1" width="28.14" height="1.64"/><rect class="cls-11" x="326.69" y="167.93" width="9.41" height="1.64"/><rect class="cls-28" x="328.7" y="149.75" width="10.96" height="1.46"/><circle class="cls-16" cx="258.32" cy="232.33" r="6.35"/><circle class="cls-16" cx="270.12" cy="211.9" r="6.35"/><text class="cls-29" transform="translate(276.81 178.65)">Aumenta tu<tspan x="0" y="62.31" xml:space="preserve">   PRODUCTIVIDAD</tspan></text></svg>